<?xml version="1.0" encoding="UTF-8"?>
<svg width="1425px" height="1425px" viewBox="0 0 1425 1425" version="1.1" xmlns="http://www.w3.org/2000/svg" xmlns:xlink="http://www.w3.org/1999/xlink">
    <!-- Generator: Sketch 60.1 (88133) - https://sketch.com -->
    <title>Cliqz Icon</title>
    <desc>Created with Sketch.</desc>
    <defs>
        <circle id="path-1" cx="713" cy="712" r="668"/>
        <filter x="-2.6%" y="-2.1%" width="105.2%" height="105.2%" filterUnits="objectBoundingBox" id="filter-2">
            <feOffset dx="0" dy="6" in="SourceAlpha" result="shadowOffsetOuter1"/>
            <feGaussianBlur stdDeviation="10.5" in="shadowOffsetOuter1" result="shadowBlurOuter1"/>
            <feColorMatrix values="0 0 0 0 0   0 0 0 0 0   0 0 0 0 0  0 0 0 0.5 0" type="matrix" in="shadowBlurOuter1"/>
        </filter>
    </defs>
    <g id="Cliqz-Icon" stroke="none" stroke-width="1" fill="none" fill-rule="evenodd">
        <g id="Oval">
            <use fill="black" fill-opacity="1" filter="url(#filter-2)" xlink:href="#path-1"/>
            <use fill="#00AEF0" fill-rule="evenodd" xlink:href="#path-1"/>
        </g>
        <g id="Cliqz_Q" transform="translate(310.000000, 310.000000)" fill="#FFFFFF">
            <polygon id="Path" points="650.293703 608.572292 791 561.441562 402 403 560.441562 792 607.670277 651.195718 739.26398 782.789421 781.887406 740.165995"/>
            <path d="M402.5,642.239368 C403.673755,642.239368 404.847509,642.043742 406.021264,642.043742 L470.0887,799.22904 C448.080802,802.94593 425.58384,805 402.5,805 C180.562576,805 0,624.437424 0,402.5 C0,180.562576 180.562576,0 402.5,0 C624.437424,0 805,180.562576 805,402.5 C805,425.877278 802.94593,448.667679 799.033414,470.969016 L641.94593,406.90158 C641.94593,405.434386 642.239368,403.967193 642.239368,402.5 C642.239368,270.3548 534.743013,162.760632 402.5,162.760632 C270.3548,162.760632 162.760632,270.3548 162.760632,402.5 C162.760632,534.6452 270.3548,642.239368 402.5,642.239368" id="Path"/>
        </g>
    </g>
</svg>