<svg version="1" xmlns="http://www.w3.org/2000/svg" width="1365.333" height="1365.333" viewBox="0 0 1024.000000 1024.000000"><path d="M264.9 52c-36.6 3.3-76.9 19.3-105.7 41.9C112.8 130.2 84 182.5 79 239.2c-.6 7.2-1 108-1 274.8 0 226.2.2 265.3 1.5 276 7.4 62.5 43.3 119 96.7 152.2 25.6 15.9 57.9 26.8 88.2 29.7 14.7 1.5 480.1 1.5 494.7.1 33.3-3.2 66.6-15.2 94.5-33.8 52.5-35.1 85.2-89.8 91.4-153.1 1.4-14.4 1.4-530.6 0-545.6-5.3-55.8-31-104.7-74.1-140.9-30.9-26-71.6-42.7-113.4-46.6-13-1.2-479.2-1.2-492.6 0zM352 183l17.3 42 7.6-.5c4.2-.3 21.8-1 39.1-1.6 17.3-.6 31.5-1.2 31.6-1.2.3-.5 19.3-40.4 23.1-48.5 2.3-5.1 4.6-9.1 5-8.8.5.2 6.7 12.9 13.8 28.1l13 27.6 13.5-.5c7.4-.3 20.8-.9 29.7-1.2l16.1-.6 9.3-19.9c5-11 9.5-19.9 9.9-19.9.3 0 4.7 8.7 9.6 19.2l9 19.3 17.9.6c34.7 1.3 60.2 5.5 86.9 14.3 25.8 8.5 43.5 17.7 60.7 31.4 24.8 19.7 42.7 53.4 48 90.7 1.9 13 1.7 44.7-.4 56.5-3.4 20-9.9 37-19.4 51.3-10.7 16.1-34.8 37.6-57.1 51-5.1 3.1-9.1 5.9-9 6.3.2.5 4.1 2.1 8.8 3.6 12.6 4.2 33.3 14.8 43 21.9 27.6 20.4 44.6 48.5 51.2 84.9 3 16.2 2.9 47.2-.1 64.4-6.9 39-28.8 75.5-59.3 98.5-32.9 24.9-78.3 42.5-127.8 49.6-23.8 3.3-34.4 3.6-142 2.9-98.5-.6-158.2 0-221.7 2.2l-18.1.7-2.1-4.1c-3.4-6.7-6.9-18.1-9.2-30.2-1.8-9.6-2.2-16.7-2.8-42.5l-.6-30.9-32.7-6c-18.1-3.4-32.8-6.4-32.8-6.7 0-.4 1.2-1.1 2.8-1.7 1.5-.5 16.3-7.6 33-15.7l30.2-14.8v-23.4c0-21.5-.1-23.3-1.7-23.4-1 0-16-1.7-33.3-3.7l-31.5-3.8 6-3.5c3.3-1.9 18.3-10.4 33.3-18.9l27.2-15.5v-23.8c0-23.7 0-23.8-2.2-24.5-1.3-.5-16.1-4.2-33-8.3-17-4.1-30.8-7.7-30.8-8 0-.3 8.4-4 18.8-8.2 10.3-4.3 25-10.4 32.7-13.6l14-5.8.3-20.1.2-20-29.7-9.7c-16.4-5.3-31.1-10.1-32.8-10.8-2.8-1.1-1-1.8 29.5-11.8l32.5-10.7v-35.5l-34-11.9c-42.4-14.8-39-13.3-33.5-14.8 2.5-.6 18.7-5.5 36-10.9l31.5-9.8.3-57.5.2-57.6 10.3-.6c5.6-.3 17.2-.8 25.7-1.1 8.5-.4 15.5-.7 15.6-.8.5-1.1 30.4-73.9 32.3-78.9 1.4-3.7 2.9-6.8 3.2-6.8.4 0 8.4 18.9 17.9 42z"/><path d="M494.2 352.6c-14.2 3.1-13.5-.5-12.2 60.7 1.3 64.7 1.3 64.2 3.5 66.7 3.3 3.6 6.8 3.7 28.9.8 24.2-3.2 35.7-6.2 46.8-11.9 18.2-9.5 27.8-28.5 27.8-54.8 0-19.3-3.9-30.6-14.4-41.8-12.4-13.4-37.5-21.5-65.1-21.2-4.9.1-11.8.7-15.3 1.5zM496.5 576.2c-.2.7-.6 6.7-.8 13.3-.3 6.6-1.7 20.1-3.1 30-3.7 25.4-5.2 52.4-3.9 70.2.6 8.6 1.5 14.8 2.3 15.8 1.1 1.3 3.8 1.4 18.9 1 9.7-.3 21.2-1 25.6-1.6 17.2-2.2 33.7-8 42.7-15.1 5.8-4.5 13.1-16.3 16.4-26.4 2.7-8.3 2.9-9.9 2.9-24.9 0-18.6-1.2-23.8-7.4-33.1-8-11.9-13.6-16.2-28.6-21.9-10.7-4-25.8-6.2-55.3-8-7-.4-9.3-.3-9.7.7z"/></svg>