<svg version="1" xmlns="http://www.w3.org/2000/svg" width="1365.333" height="1365.333" viewBox="0 0 1024.000000 1024.000000"><path d="M0 512v512h1024V0H0v512zM594.7 84.5c86.3 7 145.5 33 183.6 80.7 22.5 28.1 37.1 66.9 42.9 113.8 2.1 16.6 1.7 65.6-.6 80-7.3 46.4-25.5 83.6-57.1 116.8l-8.5 8.9 8.4 6.6c20.4 16.2 39.5 41.7 50.8 67.9 9.8 22.7 15.1 43.4 20 79.3 1.7 12.2 1.7 69.4 0 84-7.7 65.1-28 111.5-65.2 148.5-32.9 32.8-76.9 54-133 64-31.1 5.5-26.2 5.3-218.6 5.7l-178.1.4-5.9-2.2c-7.7-2.9-14.4-9.6-17.3-17.2l-2.1-5.8V108.1l2.1-5.8c2.8-7.4 9.6-14.3 17-17.1 5.4-2.1 5.5-2.1 174.1-2.1 142.6-.1 171.6.1 187.5 1.4z"/><path d="M276 512v367h153.8c164.3 0 167.9-.1 196.2-5.1 54.2-9.5 93.6-32.5 117.6-68.5 14.2-21.4 23.5-48.5 28.6-83.9 1.8-12.4 1.8-68.7 0-81.5-7.2-50.3-23.2-82.3-52.7-104.5-3.3-2.5-12.3-7.7-20.1-11.5-20.6-10.1-25.4-16.2-26.2-33.7-.8-17.1 2.9-23.6 20.2-36.1 38.9-27.8 59.2-60.2 66.1-105.2 2-12.5 2.2-44.3.5-60.6-9.5-90.1-58.3-132-165.5-141.9-13.3-1.2-41.4-1.5-167.2-1.5H276v367zm257-249.2c23 6.5 40 21.3 48.9 42.7 7.1 17 10.1 37.2 10.1 68 0 34-3.4 54.2-12.2 72.4-9.3 19.3-25 31.7-47.3 37.3-8.4 2.1-11.1 2.3-41 2.3-31.6 0-32.1 0-37.3-2.4-7.1-3.2-14.3-11.2-16.6-18.3-1.5-4.9-1.6-13.1-1.4-94.3l.3-89 3-5.4c3.6-6.5 9.2-11.4 15.9-14.1 4.8-1.9 7-2 37.6-1.6 29.4.3 33.2.5 40 2.4zM516.8 549c15.8 1.2 26.5 3.9 37.7 9.4 23.1 11.4 36.9 30.6 44 61.4 6.3 26.8 7 81.1 1.5 109.7-7.6 39-26.1 58.6-63 66.6-9.7 2.1-13 2.3-44 2.4-33.2 0-33.5 0-38.8-2.4-7-3.2-14.3-11.2-16.5-18.3-1.6-4.9-1.7-13.9-1.5-106.3l.3-101 2.3-4.3c5.1-9.6 13-15.5 22.9-17.2 6.8-1.1 40.6-1.1 55.1 0z"/><path d="M498 373v51h8.1c4.4 0 10.1-.5 12.6-1.1 4-1.1 4.8-1.7 6.4-5.5 3.2-7.1 5.1-23.2 5.1-43.4 0-20.4-1.2-32.2-4.5-42-2.9-8.6-5.5-10-18.4-10H498v51zM498 673.5v63.8l12.8-.6c14.5-.6 22.4-2.6 24.8-6.2.8-1.3 2.5-6.8 3.7-12.2 1.9-8.8 2.1-12.9 2.1-38.8 0-30.9-1.2-42.4-5.6-54.3-4.1-11-9.4-13.9-27-14.9l-10.8-.6v63.8z"/></svg>