<?xml version="1.0" standalone="no"?>
<!DOCTYPE svg PUBLIC "-//W3C//DTD SVG 20010904//EN"
 "http://www.w3.org/TR/2001/REC-SVG-20010904/DTD/svg10.dtd">
<svg version="1.0" xmlns="http://www.w3.org/2000/svg"
 width="1024.000000pt" height="1024.000000pt" viewBox="0 0 1024.000000 1024.000000"
 preserveAspectRatio="xMidYMid meet">
<metadata>
Created by potrace 1.11, written by Peter Selinger 2001-2013
</metadata>
<g transform="translate(0.000000,1024.000000) scale(0.100000,-0.100000)"
fill="#000000" stroke="none">
<path d="M905 10229 c-468 -59 -836 -430 -894 -904 -16 -128 -16 -8282 0
-8410 59 -479 425 -845 904 -904 128 -16 8282 -16 8410 0 479 59 845 425 904
904 16 128 16 8282 0 8410 -59 479 -425 845 -904 904 -111 13 -8311 13 -8420
0z m4695 -2349 c567 -26 935 -146 1210 -393 262 -235 399 -604 400 -1076 0
-263 -39 -450 -135 -647 -79 -163 -198 -314 -339 -431 l-48 -40 58 -36 c70
-43 175 -134 233 -200 213 -249 321 -605 321 -1062 0 -474 -123 -847 -373
-1138 -205 -238 -562 -409 -987 -472 -198 -29 -545 -36 -1595 -33 -965 3
-1033 4 -1058 21 -15 9 -35 29 -44 44 -17 26 -18 165 -21 2668 -2 1452 0 2659
3 2682 7 52 45 100 88 112 44 13 2018 13 2287 1z"/>
<path d="M4990 6039 l0 -422 123 5 c189 7 230 38 259 193 19 104 16 372 -5
465 -35 152 -75 179 -259 180 l-118 0 0 -421z"/>
<path d="M4990 4050 l0 -500 128 0 c147 0 233 18 273 56 96 92 101 653 8 835
-39 77 -128 109 -301 109 l-108 0 0 -500z"/>
</g>
</svg>
