<?xml version="1.0" encoding="UTF-8" standalone="no"?><!DOCTYPE svg PUBLIC "-//W3C//DTD SVG 1.1//EN" "http://www.w3.org/Graphics/SVG/1.1/DTD/svg11.dtd"><svg width="100%" height="100%" viewBox="0 0 1000 200" version="1.1" xmlns="http://www.w3.org/2000/svg" xmlns:xlink="http://www.w3.org/1999/xlink" xml:space="preserve" xmlns:serif="http://www.serif.com/" style="fill-rule:evenodd;clip-rule:evenodd;stroke-linejoin:round;stroke-miterlimit:1.41421;"><rect x="0" y="0" width="1000" height="200" style="fill:#0080ff;"/><path d="M206.311,94.219l-4.336,0l0,-13.009c0,-15.14 -12.322,-27.462 -27.462,-27.462c-15.14,0 -27.462,12.322 -27.462,27.462l0,13.009l-4.336,0c-4.788,0 -8.672,3.884 -8.672,8.672l0,34.688c0,4.788 3.884,8.673 8.672,8.673l63.596,0c4.788,0 8.672,-3.885 8.672,-8.673l0,-34.688c0,-4.788 -3.884,-8.672 -8.672,-8.672Zm-24.571,30.352c0,3.993 -3.234,7.227 -7.227,7.227c-3.993,0 -7.227,-3.234 -7.227,-7.227l0,-8.672c0,-3.993 3.234,-7.227 7.227,-7.227c3.993,0 7.227,3.234 7.227,7.227l0,8.672Zm5.781,-30.352l-26.016,0l0,-13.009c0,-7.172 5.835,-13.008 13.008,-13.008c7.172,0 13.008,5.836 13.008,13.008l0,13.009Z" style="fill:#fff;fill-opacity:0.701961;fill-rule:nonzero;"/><g transform="matrix(1.10611,0,0,1.10611,-13.2779,-41.991)"><text x="248.001px" y="156px" style="font-family:'HelveticaNeue', 'Helvetica Neue';font-size:72px;fill:#fff;">lor<tspan x="327.993px 366.657px " y="156px 156px ">em</tspan>.com</text><text x="589.497px" y="156px" style="font-family:'HelveticaNeue', 'Helvetica Neue';font-size:72px;fill:#fff;fill-opacity:0.698039;">/ipsum</text></g></svg>