<?xml version="1.0" encoding="UTF-8" standalone="no"?>
<!DOCTYPE svg PUBLIC "-//W3C//DTD SVG 1.1//EN" "http://www.w3.org/Graphics/SVG/1.1/DTD/svg11.dtd">
<svg width="100%" height="100%" viewBox="0 0 1000 200" version="1.1" xmlns="http://www.w3.org/2000/svg" xmlns:xlink="http://www.w3.org/1999/xlink" xml:space="preserve" xmlns:serif="http://www.serif.com/" style="fill-rule:evenodd;clip-rule:evenodd;stroke-linejoin:round;stroke-miterlimit:2;">
    <path d="M1000,100C1000,44.808 955.192,0 900,0L100,0C44.808,0 0,44.808 0,100C0,155.192 44.808,200 100,200L900,200C955.192,200 1000,155.192 1000,100Z" style="fill:rgb(33,36,40);"/>
    <path d="M1000,100C1000,44.808 955.192,0 900,0L100,0C44.808,0 0,44.808 0,100C0,155.192 44.808,200 100,200L900,200C955.192,200 1000,155.192 1000,100ZM980,100C980,144.153 944.153,180 900,180C900,180 100,180 100,180C55.847,180 20,144.153 20,100C20,55.847 55.847,20 100,20L900,20C944.153,20 980,55.847 980,100Z" style="fill:rgb(19,22,28);"/>
    <path d="M206.311,94.219L201.975,94.219L201.975,81.21C201.975,66.07 189.653,53.748 174.513,53.748C159.373,53.748 147.051,66.07 147.051,81.21L147.051,94.219L142.715,94.219C137.927,94.219 134.043,98.103 134.043,102.891L134.043,137.579C134.043,142.367 137.927,146.252 142.715,146.252L206.311,146.252C211.099,146.252 214.983,142.367 214.983,137.579L214.983,102.891C214.983,98.103 211.099,94.219 206.311,94.219ZM181.74,124.571C181.74,128.564 178.506,131.798 174.513,131.798C170.52,131.798 167.286,128.564 167.286,124.571L167.286,115.899C167.286,111.906 170.52,108.672 174.513,108.672C178.506,108.672 181.74,111.906 181.74,115.899L181.74,124.571ZM187.521,94.219L161.505,94.219L161.505,81.21C161.505,74.038 167.34,68.202 174.513,68.202C181.685,68.202 187.521,74.038 187.521,81.21L187.521,94.219Z" style="fill:rgb(95,102,114);fill-rule:nonzero;"/>
    <g transform="matrix(1.10611,0,0,1.10611,-13.2779,-41.991)">
        <g>
            <g transform="matrix(1,0,0,1,248.001,156)">
                <text x="0px" y="0px" style="font-family:'HelveticaNeue', 'Helvetica Neue';font-size:72px;fill:rgb(198,204,215);">lor</text>
            </g>
            <g transform="matrix(1,0,0,1,327.993,156)">
                <text x="0px" y="0px" style="font-family:'HelveticaNeue', 'Helvetica Neue';font-size:72px;fill:rgb(198,204,215);">em.com</text>
            </g>
        </g>
        <g transform="matrix(1,0,0,1,589.497,156)">
            <text x="0px" y="0px" style="font-family:'HelveticaNeue', 'Helvetica Neue';font-size:72px;fill:rgb(95,102,114);">/ipsum</text>
        </g>
    </g>
</svg>
