<?xml version="1.0" encoding="UTF-8" standalone="no"?>
<!DOCTYPE svg PUBLIC "-//W3C//DTD SVG 1.1//EN" "http://www.w3.org/Graphics/SVG/1.1/DTD/svg11.dtd">
<svg width="100%" height="100%" viewBox="0 0 300 300" version="1.1" xmlns="http://www.w3.org/2000/svg" xmlns:xlink="http://www.w3.org/1999/xlink" xml:space="preserve" xmlns:serif="http://www.serif.com/" style="fill-rule:evenodd;clip-rule:evenodd;stroke-linejoin:round;stroke-miterlimit:2;">
    <path d="M300,30.405C300,13.624 286.376,0 269.595,0L30.405,0C13.624,0 0,13.624 0,30.405L0,269.595C0,286.376 13.624,300 30.405,300L269.595,300C286.376,300 300,286.376 300,269.595L300,30.405Z" style="fill:rgb(26,32,44);"/>
    <circle cx="250" cy="250" r="30" style="fill:rgb(15,186,237);"/>
    <circle cx="150" cy="48.251" r="30" style="fill:rgb(64,112,216);"/>
    <circle cx="250" cy="48.251" r="30" style="fill:rgb(253,133,6);"/>
    <circle cx="50" cy="150" r="30" style="fill:rgb(0,41,183);"/>
    <circle cx="150" cy="150" r="30" style="fill:rgb(172,57,250);"/>
    <circle cx="250" cy="150" r="30" style="fill:rgb(25,160,93);"/>
    <circle cx="50" cy="250" r="30" style="fill:rgb(252,177,0);"/>
    <circle cx="150" cy="250" r="30" style="fill:rgb(254,29,45);"/>
    <circle cx="50" cy="48.251" r="30" style="fill:rgb(237,64,46);"/>
</svg>
