<?xml version="1.0" encoding="UTF-8" standalone="no"?><!DOCTYPE svg PUBLIC "-//W3C//DTD SVG 1.1//EN" "http://www.w3.org/Graphics/SVG/1.1/DTD/svg11.dtd"><svg width="100%" height="100%" viewBox="0 0 300 300" version="1.1" xmlns="http://www.w3.org/2000/svg" xmlns:xlink="http://www.w3.org/1999/xlink" xml:space="preserve" xmlns:serif="http://www.serif.com/" style="fill-rule:evenodd;clip-rule:evenodd;stroke-linejoin:round;stroke-miterlimit:1.41421;"><path d="M300,30.405c0,-16.781 -13.624,-30.405 -30.405,-30.405l-239.19,0c-16.781,0 -30.405,13.624 -30.405,30.405l0,239.19c0,16.781 13.624,30.405 30.405,30.405l239.19,0c16.781,0 30.405,-13.624 30.405,-30.405l0,-239.19Z" style="fill:#232323;"/><circle cx="250" cy="250" r="30" style="fill:#0fbaed;"/><circle cx="150" cy="48.251" r="30" style="fill:#4070d8;"/><circle cx="250" cy="48.251" r="30" style="fill:#fd8506;"/><circle cx="50" cy="150" r="30" style="fill:#0029b7;"/><circle cx="150" cy="150" r="30" style="fill:#ac39fa;"/><circle cx="250" cy="150" r="30" style="fill:#19a05d;"/><circle cx="50" cy="250" r="30" style="fill:#fcb100;"/><circle cx="150" cy="250" r="30" style="fill:#fe1d2d;"/><circle cx="50" cy="48.251" r="30" style="fill:#ed402e;"/></svg>