<?xml version="1.0" standalone="no"?>
<!DOCTYPE svg PUBLIC "-//W3C//DTD SVG 20010904//EN"
 "http://www.w3.org/TR/2001/REC-SVG-20010904/DTD/svg10.dtd">
<svg version="1.0" xmlns="http://www.w3.org/2000/svg"
 width="512.000000pt" height="512.000000pt" viewBox="0 0 512.000000 512.000000"
 preserveAspectRatio="xMidYMid meet">
<metadata>
Created by potrace 1.14, written by Peter Selinger 2001-2017
</metadata>
<g transform="translate(0.000000,512.000000) scale(0.100000,-0.100000)"
fill="#000000" stroke="none">
<path d="M396 5104 c-182 -44 -337 -201 -381 -385 -13 -56 -15 -325 -15 -2159
0 -2309 -4 -2158 63 -2284 40 -78 135 -173 213 -213 126 -67 -25 -63 2284 -63
2309 0 2158 -4 2284 63 78 40 173 135 213 213 67 126 63 -25 63 2284 0 1834
-2 2103 -15 2159 -44 187 -199 342 -386 386 -94 22 -4231 21 -4323 -1z m2577
-1179 c383 -58 587 -255 627 -607 29 -245 -31 -446 -177 -597 -40 -41 -71 -76
-70 -77 1 -1 27 -20 57 -43 116 -86 194 -229 226 -413 22 -123 14 -338 -15
-453 -59 -229 -202 -395 -413 -480 -172 -69 -161 -68 -898 -72 l-665 -4 -17
22 c-17 20 -18 99 -18 1358 0 1193 2 1339 16 1359 l15 22 617 0 c493 0 637 -3
715 -15z"/>
<path d="M1740 2560 l0 -1260 493 0 c536 1 700 8 822 40 232 59 380 199 440
415 26 93 32 331 11 436 -33 169 -116 286 -252 358 -62 33 -69 39 -72 70 -6
56 5 77 58 111 190 122 272 350 225 626 -49 288 -242 428 -629 454 -72 5 -348
9 -613 10 l-483 0 0 -1260z m962 767 c89 -52 125 -162 115 -351 -12 -221 -66
-281 -264 -293 -55 -3 -112 -3 -126 1 -58 14 -57 11 -57 341 0 368 -15 338
165 333 110 -3 124 -5 167 -31z m15 -954 c104 -55 138 -147 138 -368 0 -207
-24 -274 -115 -325 -41 -23 -58 -25 -188 -28 -126 -3 -146 -2 -163 14 -18 16
-19 34 -19 357 0 309 2 342 17 360 16 17 30 18 153 15 115 -3 141 -7 177 -25z"/>
<path d="M2490 3021 l0 -211 55 0 c82 0 118 19 133 67 14 49 16 224 2 273 -18
66 -30 74 -114 78 l-76 4 0 -211z"/>
<path d="M2492 2024 l3 -249 77 2 c103 2 130 16 145 73 15 58 16 244 2 310 -6
28 -21 63 -34 78 -21 25 -30 27 -109 31 l-86 3 2 -248z"/>
</g>
</svg>
