<?xml version="1.0" standalone="no"?>
<!DOCTYPE svg PUBLIC "-//W3C//DTD SVG 20010904//EN"
 "http://www.w3.org/TR/2001/REC-SVG-20010904/DTD/svg10.dtd">
<svg version="1.0" xmlns="http://www.w3.org/2000/svg"
 width="1024.000000pt" height="1024.000000pt" viewBox="0 0 1024.000000 1024.000000"
 preserveAspectRatio="xMidYMid meet">
<metadata>
Created by potrace 1.14, written by Peter Selinger 2001-2017
</metadata>
<g transform="translate(0.000000,1024.000000) scale(0.100000,-0.100000)"
fill="#000000" stroke="none">
<path d="M2930 9239 c-478 -22 -765 -95 -1057 -268 -417 -246 -708 -653 -812
-1131 -69 -322 -73 -513 -68 -2925 5 -2232 4 -2208 68 -2515 92 -440 358 -836
730 -1085 287 -193 586 -285 1034 -318 249 -18 4417 -17 4630 1 188 16 373 45
491 77 681 185 1161 737 1268 1460 40 265 41 347 41 2580 0 2282 -1 2341 -46
2607 -82 485 -312 872 -683 1150 -276 207 -590 316 -1031 359 -142 14 -4281
22 -4565 8z m560 -393 c0 -2 -7 -9 -15 -16 -13 -11 -14 -10 -9 4 5 14 24 23
24 12z m1022 -18 c-7 -7 -12 -8 -12 -2 0 14 12 26 19 19 2 -3 -1 -11 -7 -17z
m851 2 c-3 -11 -9 -17 -15 -14 -5 3 -4 12 3 20 16 19 18 18 12 -6z m344 -26
c12 -18 18 -34 12 -34 -5 0 -15 11 -21 25 -6 14 -15 25 -19 25 -4 0 -9 7 -12
14 -10 27 17 6 40 -30z m444 29 c-18 -33 -96 -88 -86 -60 3 7 21 21 40 31 18
10 36 25 39 32 3 8 8 14 11 14 3 0 1 -8 -4 -17z m169 13 c0 -3 -4 -8 -10 -11
-5 -3 -10 -1 -10 4 0 6 5 11 10 11 6 0 10 -2 10 -4z m797 -28 c-3 -8 -6 -5 -6
6 -1 11 2 17 5 13 3 -3 4 -12 1 -19z m-2342 -9 c-4 -5 -1 -9 4 -9 6 0 11 -5
11 -11 0 -8 -5 -8 -15 1 -17 14 -21 45 -5 35 6 -4 8 -11 5 -16z m1905 -1 c0
-16 -3 -19 -11 -11 -6 6 -8 16 -5 22 11 17 16 13 16 -11z m-395 -28 c-9 -18
-19 -30 -22 -27 -3 3 3 19 13 36 23 39 30 32 9 -9z m252 -12 c-2 -13 -4 -5 -4
17 -1 22 1 32 4 23 2 -10 2 -28 0 -40z m963 48 c0 -2 -7 -7 -16 -10 -8 -3 -12
-2 -9 4 6 10 25 14 25 6z m-4373 -38 c-3 -8 -6 -5 -6 6 -1 11 2 17 5 13 3 -3
4 -12 1 -19z m1370 -20 c-3 -7 -5 -2 -5 12 0 14 2 19 5 13 2 -7 2 -19 0 -25z
m-1524 -8 c3 -11 1 -18 -4 -14 -5 3 -9 12 -9 20 0 20 7 17 13 -6z m739 -32 c2
-21 0 -38 -4 -38 -4 0 -8 21 -7 48 1 52 6 48 11 -10z m1085 30 c-3 -8 -6 -5
-6 6 -1 11 2 17 5 13 3 -3 4 -12 1 -19z m483 -25 c-25 -26 -46 -50 -47 -52 -2
-2 -6 -1 -10 3 -8 7 76 96 91 96 6 0 -10 -21 -34 -47z m1407 25 c-3 -8 -6 -5
-6 6 -1 11 2 17 5 13 3 -3 4 -12 1 -19z m713 7 c-7 -8 -17 -15 -22 -15 -11 0
14 29 26 30 5 0 3 -7 -4 -15z m-4770 -5 c0 -5 -4 -10 -10 -10 -5 0 -10 5 -10
10 0 6 5 10 10 10 6 0 10 -4 10 -10z m3160 -54 c0 -5 -13 3 -30 19 -16 16 -30
33 -30 39 0 5 14 -3 30 -19 17 -16 30 -33 30 -39z m260 54 c0 -5 -4 -10 -10
-10 -5 0 -10 5 -10 10 0 6 5 10 10 10 6 0 10 -4 10 -10z m-2500 -25 c-13 -14
-26 -23 -28 -20 -4 4 38 44 47 45 3 0 -6 -11 -19 -25z m2024 15 c14 -5 26 -14
26 -20 0 -7 -6 -8 -17 -1 -10 5 -21 10 -25 10 -4 1 -13 3 -20 6 -7 2 -22 6
-33 8 -13 3 -8 5 12 6 17 0 43 -3 57 -9z m446 0 c0 -5 -4 -10 -9 -10 -5 0 -18
-3 -28 -6 -16 -6 -16 -5 2 9 23 19 35 21 35 7z m1024 -6 c9 -24 2 -26 -12 -4
-7 11 -8 20 -3 20 5 0 12 -7 15 -16z m732 -52 c-11 -10 -14 3 -7 38 l6 35 3
-33 c2 -19 1 -36 -2 -40z m-5289 26 c-3 -7 -5 -2 -5 12 0 14 2 19 5 13 2 -7 2
-19 0 -25z m793 19 c-14 -8 -27 -12 -30 -10 -7 6 23 23 40 23 8 0 4 -6 -10
-13z m2973 -30 c-6 -39 -15 -41 -20 -7 -2 11 2 20 7 20 6 0 10 8 10 17 0 9 2
14 5 12 2 -3 2 -22 -2 -42z m294 11 c-3 -7 -5 -2 -5 12 0 14 2 19 5 13 2 -7 2
-19 0 -25z m810 26 c-3 -3 -12 -4 -19 -1 -8 3 -5 6 6 6 11 1 17 -2 13 -5z
m253 -14 c-11 -11 -20 -31 -20 -45 0 -14 -4 -25 -10 -25 -20 0 -10 57 13 73
31 22 41 21 17 -3z m-3120 3 c0 -15 -89 -107 -97 -100 -3 4 9 22 28 41 20 18
38 40 42 49 6 17 27 24 27 10z m347 -23 c6 -12 17 -26 24 -31 8 -4 10 -11 6
-16 -8 -7 -36 22 -58 61 -9 14 -8 17 3 14 7 -3 18 -15 25 -28z m653 21 c0 -5
-7 -11 -14 -14 -10 -4 -13 -1 -9 9 6 15 23 19 23 5z m1212 -43 c-9 -9 -12 -4
-11 23 0 32 1 33 11 11 8 -17 8 -26 0 -34z m618 42 c0 -5 -10 -15 -22 -21
l-23 -12 20 21 c23 24 25 25 25 12z m-4683 -57 c-3 -10 -5 -2 -5 17 0 19 2 27
5 18 2 -10 2 -26 0 -35z m3283 37 c0 -12 -60 -23 -91 -17 -17 3 -13 5 13 6 20
0 40 6 43 11 8 13 35 13 35 0z m-2920 -27 c0 -21 -3 -24 -9 -14 -5 8 -7 20 -4
28 8 21 13 15 13 -14z m214 19 c-6 -4 -14 -16 -17 -26 -4 -10 -10 -16 -13 -13
-9 8 15 47 29 47 8 0 9 -3 1 -8z m-717 -24 c-3 -8 -6 -5 -6 6 -1 11 2 17 5 13
3 -3 4 -12 1 -19z m1020 -10 c-3 -7 -5 -2 -5 12 0 14 2 19 5 13 2 -7 2 -19 0
-25z m1943 11 c0 -11 -4 -17 -10 -14 -5 3 -10 13 -10 21 0 8 5 14 10 14 6 0
10 -9 10 -21z m1110 1 c0 -11 -4 -20 -10 -20 -5 0 -10 9 -10 20 0 11 5 20 10
20 6 0 10 -9 10 -20z m487 -12 c-3 -7 -5 -2 -5 12 0 14 2 19 5 13 2 -7 2 -19
0 -25z m-1393 -27 c-2 -3 -13 5 -24 16 -10 12 -16 23 -13 27 3 3 14 -5 23 -17
10 -12 16 -24 14 -26z m-451 20 c-5 -3 -12 -14 -16 -23 -3 -10 -12 -18 -19
-18 -8 0 -21 -8 -29 -17 -38 -43 -102 -83 -130 -83 -21 0 -139 77 -139 91 0 4
-3 15 -6 24 -5 13 0 15 30 12 25 -3 39 0 45 11 5 9 13 12 21 7 15 -9 177 -11
186 -2 3 3 12 3 19 1 7 -3 16 0 20 5 3 6 11 8 17 5 6 -4 6 -9 1 -13z m337 -25
c14 -2 42 -7 64 -10 21 -4 43 -9 49 -13 6 -3 7 -1 3 5 -4 7 -2 12 4 12 7 0 14
-9 17 -20 3 -11 9 -20 12 -20 4 0 18 -21 32 -47 17 -35 24 -63 23 -103 -1 -69
-14 -93 -64 -125 -34 -22 -44 -23 -92 -15 -77 12 -102 24 -147 69 -46 46 -60
96 -42 148 7 18 9 42 6 53 -4 11 -2 20 4 20 6 0 11 11 11 24 0 13 6 26 13 29
13 4 68 1 107 -7z m-2005 -14 c-3 -3 -11 0 -18 7 -9 10 -8 11 6 5 10 -3 15 -9
12 -12z m776 -55 l-63 -62 -79 -4 c-59 -2 -79 0 -79 10 0 7 3 10 6 6 3 -3 23
1 44 8 21 7 41 11 44 8 3 -4 6 -2 6 3 0 5 8 10 18 11 47 3 79 16 102 42 22 24
42 37 60 40 3 1 -24 -27 -59 -62z m1998 26 c25 -21 53 -44 61 -50 8 -7 24 -19
35 -27 18 -14 18 -15 3 -16 -10 0 -36 17 -58 38 -22 20 -53 49 -70 65 -45 40
-24 33 29 -10z m-3672 -5 c-3 -7 -5 -2 -5 12 0 14 2 19 5 13 2 -7 2 -19 0 -25z
m372 -13 c0 -5 -4 -3 -9 5 -5 8 -9 22 -9 30 0 16 17 -16 18 -35z m3560 8 c0
-33 -1 -35 -9 -15 -8 20 -4 52 6 52 2 0 4 -17 3 -37z m651 27 c0 -5 -5 -10
-11 -10 -5 0 -7 5 -4 10 3 6 8 10 11 10 2 0 4 -4 4 -10z m640 0 c0 -5 -2 -10
-4 -10 -3 0 -8 5 -11 10 -3 6 -1 10 4 10 6 0 11 -4 11 -10z m-5350 -30 c0 -10
-4 -22 -10 -25 -6 -4 -10 7 -10 25 0 18 4 29 10 25 6 -3 10 -15 10 -25z m1080
-13 c0 -6 -9 -2 -20 8 -11 10 -20 23 -20 28 0 6 9 2 20 -8 11 -10 20 -23 20
-28z m980 33 c0 -5 14 -10 30 -10 17 0 30 -5 30 -11 0 -5 4 -8 9 -5 4 3 16 -3
26 -14 10 -11 21 -20 25 -20 11 0 110 -100 110 -110 0 -5 8 -11 18 -14 10 -3
24 -16 32 -27 8 -12 43 -57 78 -99 34 -43 62 -82 62 -89 0 -6 7 -11 15 -11 8
0 15 -7 15 -15 0 -9 6 -18 14 -21 8 -3 20 -18 26 -32 6 -15 24 -49 40 -77 46
-78 60 -114 60 -156 0 -36 2 -39 28 -39 38 0 249 -19 297 -26 l40 -6 -27 22
c-16 12 -28 28 -28 36 0 8 -5 23 -12 34 -10 15 -10 26 0 53 7 18 12 41 12 50
0 9 10 27 23 41 41 45 57 66 57 75 0 17 61 21 83 6 33 -23 67 -18 98 15 16 16
29 35 29 41 0 7 10 9 27 4 34 -8 55 -24 47 -36 -3 -5 -1 -9 3 -9 13 0 41 -59
54 -113 13 -55 1 -131 -32 -203 -10 -23 -19 -46 -19 -53 0 -6 -8 -11 -17 -11
-30 0 0 -16 59 -33 64 -17 61 -20 73 59 4 27 18 54 41 79 34 37 35 38 91 31
31 -4 61 -10 67 -15 6 -4 31 -13 56 -20 25 -7 50 -17 55 -21 6 -4 34 -13 63
-20 28 -6 55 -16 58 -21 3 -5 16 -9 29 -9 14 0 44 -5 67 -11 70 -18 114 0 165
66 43 55 43 55 97 55 51 0 57 -3 85 -37 16 -20 28 -40 25 -44 -2 -4 17 -25 42
-46 76 -63 124 -115 124 -135 0 -20 -24 -58 -75 -119 -53 -64 -65 -79 -65 -85
0 -3 -13 -23 -30 -44 -16 -21 -30 -42 -30 -48 0 -5 -10 -22 -22 -37 l-22 -28
40 -34 c68 -60 82 -67 99 -53 8 7 15 18 15 25 0 21 50 47 79 42 38 -7 93 -30
121 -49 13 -10 31 -18 38 -18 8 0 25 -9 39 -20 14 -11 34 -20 44 -20 11 0 19
-7 19 -15 0 -8 5 -15 12 -15 6 0 26 -11 44 -25 18 -14 37 -25 41 -25 5 0 20
-13 33 -30 14 -16 30 -29 35 -30 14 -1 123 -104 174 -163 45 -53 53 -100 27
-160 -7 -18 -25 -70 -40 -117 -15 -47 -33 -92 -40 -100 -23 -26 -27 -88 -9
-126 22 -45 37 -43 53 9 15 44 36 91 115 247 69 139 86 167 115 183 26 16 140
21 140 7 0 -5 18 -11 40 -15 22 -4 40 -11 40 -17 0 -5 10 -8 23 -7 25 4 87
-21 87 -35 0 -4 11 -6 25 -4 14 3 25 1 25 -3 0 -5 7 -9 15 -9 9 0 18 -7 22
-16 3 -8 12 -13 19 -10 9 3 21 -10 34 -39 11 -24 20 -47 20 -50 0 -3 9 -15 20
-27 10 -12 17 -25 13 -30 -6 -10 15 -58 30 -69 5 -4 10 -18 10 -33 1 -14 6
-26 10 -26 4 0 7 -6 5 -12 -1 -7 4 -24 11 -37 11 -19 11 -22 -1 -15 -7 4 -5
-2 5 -13 9 -11 14 -23 10 -26 -3 -4 -2 -7 4 -7 6 0 16 -22 23 -50 7 -27 17
-50 23 -50 8 0 8 -3 0 -11 -8 -8 -6 -20 8 -46 11 -19 14 -31 8 -27 -8 5 -9 3
-3 -7 4 -8 9 -20 11 -28 1 -8 7 -17 13 -21 8 -5 9 -10 2 -14 -12 -7 8 -54 29
-67 9 -5 4 -14 -15 -33 -16 -14 -25 -30 -21 -36 8 -13 -24 -80 -38 -80 -5 0
-6 -8 -3 -17 7 -17 -22 -83 -35 -83 -4 0 -5 -8 -2 -18 2 -10 -3 -31 -11 -47
-9 -17 -16 -34 -16 -38 0 -5 -11 -33 -25 -63 -14 -30 -25 -60 -25 -67 0 -7 -9
-23 -20 -35 -11 -12 -20 -27 -20 -34 0 -7 -35 -36 -78 -65 -67 -44 -86 -52
-145 -58 -62 -7 -67 -9 -53 -24 8 -9 16 -35 18 -58 3 -42 3 -43 28 -29 129 70
142 75 185 74 25 0 45 -4 45 -9 0 -5 5 -9 12 -9 6 0 27 -16 45 -36 18 -20 33
-33 33 -28 0 5 25 -16 55 -46 30 -30 55 -60 55 -67 0 -6 10 -19 22 -27 12 -9
19 -18 15 -22 -3 -3 5 -18 19 -33 16 -17 23 -33 20 -47 -3 -12 -3 -24 1 -28
11 -11 33 -79 33 -103 0 -12 -4 -25 -10 -28 -5 -3 -10 -19 -10 -35 0 -16 -4
-31 -9 -34 -5 -3 -7 -24 -4 -46 3 -21 2 -47 -2 -57 -5 -10 -7 -25 -6 -34 1 -9
-5 -22 -14 -29 -9 -7 -15 -29 -15 -51 0 -22 -4 -39 -10 -39 -5 0 -7 -6 -4 -14
3 -8 1 -17 -5 -21 -6 -3 -11 -15 -11 -25 0 -11 -29 -40 -76 -75 -41 -31 -80
-65 -87 -76 -6 -10 -16 -19 -22 -19 -6 0 -19 -9 -29 -21 -16 -20 -26 -21 -147
-17 -80 2 -130 -1 -132 -7 -3 -8 -2 -51 2 -87 1 -5 12 -8 25 -8 13 0 29 -7 36
-15 7 -8 20 -15 29 -15 28 0 71 -52 71 -86 0 -16 7 -42 15 -58 9 -16 13 -37
10 -47 -3 -9 -1 -20 5 -24 5 -3 10 -20 10 -36 0 -17 7 -43 15 -60 9 -16 13
-33 11 -38 -3 -5 5 -29 19 -55 13 -25 25 -50 26 -54 0 -4 7 -22 15 -41 8 -18
14 -39 14 -47 0 -7 4 -15 9 -19 12 -7 25 -107 17 -132 -7 -23 -85 -68 -136
-78 -19 -4 -41 -12 -49 -18 -15 -13 -40 -27 -91 -54 -19 -9 -44 -27 -55 -38
-11 -11 -43 -28 -72 -38 -66 -24 -93 -12 -93 38 0 25 -12 49 -47 94 -27 33
-53 60 -59 61 -6 0 -25 -23 -43 -51 -30 -49 -31 -51 -15 -79 14 -23 15 -35 6
-71 -7 -28 -8 -45 -2 -47 6 -2 10 -11 10 -21 0 -10 40 -54 89 -99 50 -46 91
-92 95 -107 5 -20 -1 -37 -25 -70 -55 -76 -114 -103 -170 -78 -62 27 -135 68
-176 99 -17 13 -37 24 -43 24 -6 0 -13 7 -16 15 -10 25 -38 17 -77 -23 -29
-30 -34 -41 -25 -50 7 -7 15 -12 20 -12 4 0 23 -16 42 -35 20 -19 38 -35 42
-35 10 0 111 -109 145 -157 32 -46 38 -97 14 -129 -8 -10 -15 -33 -15 -50 0
-16 -6 -39 -14 -49 -8 -11 -12 -25 -9 -32 3 -7 0 -13 -5 -13 -6 0 -14 -16 -18
-35 -3 -19 -10 -35 -14 -35 -5 0 -12 -15 -15 -33 -4 -17 -16 -46 -26 -63 -10
-17 -19 -38 -19 -45 0 -8 -9 -25 -20 -39 -11 -14 -20 -32 -20 -41 0 -9 -7 -22
-15 -29 -8 -7 -20 -30 -27 -52 -6 -22 -18 -42 -25 -45 -7 -3 -13 -11 -13 -19
0 -7 -6 -17 -14 -21 -7 -4 -18 -18 -25 -30 -6 -13 -18 -23 -26 -23 -8 0 -15
-4 -15 -9 0 -5 -15 -11 -32 -14 -18 -3 -57 -10 -86 -16 -34 -6 -62 -7 -78 -1
-25 10 -104 88 -104 103 0 5 -17 25 -37 46 -58 57 -103 112 -103 125 0 7 -11
23 -25 36 -14 13 -25 30 -25 37 0 8 -7 16 -15 19 -8 3 -17 21 -21 40 -3 19
-10 34 -14 34 -4 0 -11 21 -15 47 -4 28 -10 41 -14 34 -5 -7 -12 -12 -17 -12
-5 1 -17 -6 -27 -14 -9 -8 -24 -15 -32 -15 -18 0 -32 -23 -17 -28 7 -2 12 -9
12 -16 0 -7 8 -21 18 -32 33 -35 117 -212 127 -268 4 -20 11 -39 16 -42 14 -8
10 -46 -7 -65 -19 -21 -73 -15 -119 13 -16 10 -40 18 -52 18 -13 0 -23 4 -23
8 0 5 -6 9 -12 9 -18 1 -75 21 -123 43 -22 10 -56 22 -75 26 -19 3 -46 15 -59
25 -13 11 -34 19 -47 19 -13 0 -24 5 -24 10 0 6 -16 10 -36 10 -19 0 -33 -4
-30 -9 7 -10 -16 -21 -44 -21 -32 0 -30 -25 3 -27 27 -2 79 -24 252 -103 22
-11 53 -22 70 -25 16 -4 32 -10 35 -14 3 -4 28 -19 55 -33 39 -19 51 -30 53
-51 2 -18 -2 -29 -12 -33 -9 -3 -16 -12 -16 -19 0 -13 -30 -25 -68 -25 -12 0
-33 -6 -45 -14 -12 -8 -42 -17 -67 -21 -25 -4 -51 -12 -59 -19 -17 -13 -150
-11 -165 4 -5 5 -16 10 -24 10 -22 0 -112 62 -112 77 0 7 -4 13 -10 13 -5 0
-10 23 -10 50 0 28 4 50 9 50 5 0 12 20 15 44 4 24 16 54 26 67 25 28 25 27
-6 21 -16 -3 -23 -10 -20 -18 3 -9 0 -11 -11 -7 -11 4 -14 2 -9 -5 5 -8 0 -12
-14 -12 -27 0 -70 -28 -70 -46 0 -7 -9 -18 -20 -24 -11 -6 -20 -16 -20 -22 0
-7 -20 -31 -46 -55 -34 -32 -53 -43 -77 -43 -18 0 -50 -10 -72 -21 -21 -12
-66 -24 -100 -27 -33 -3 -63 -9 -67 -15 -3 -6 -44 -10 -90 -11 -69 -1 -91 3
-133 23 -27 14 -53 29 -56 34 -6 9 -107 12 -116 4 -7 -8 20 -47 32 -47 13 0
105 -96 105 -109 0 -5 5 -11 12 -13 6 -2 9 -12 5 -21 -6 -16 -39 -17 -387 -17
-323 0 -381 2 -386 14 -3 8 3 24 13 35 10 11 27 37 38 58 20 39 42 68 83 108
24 24 15 42 -13 31 -8 -3 -15 -2 -15 3 0 4 -16 7 -35 6 -22 -1 -35 3 -35 11 0
6 -9 14 -20 17 -11 3 -18 1 -14 -4 3 -5 -6 -5 -20 1 -23 8 -27 6 -32 -15 -3
-13 -12 -29 -20 -36 -8 -6 -14 -20 -14 -31 0 -11 -9 -31 -20 -45 -11 -14 -20
-35 -21 -47 0 -11 -10 -39 -22 -61 l-22 -39 -400 3 -400 3 -27 31 c-15 18 -30
44 -33 59 -3 14 -13 29 -21 32 -8 3 -14 12 -14 19 0 8 -12 36 -26 63 -24 44
-26 56 -20 119 3 39 13 85 21 103 9 17 19 48 22 69 4 21 12 43 18 50 7 6 15
31 19 55 4 24 13 52 20 63 7 11 16 32 19 47 4 15 14 33 22 42 14 14 13 17 -12
33 -15 10 -31 21 -34 26 -7 9 -89 -147 -89 -169 0 -7 -3 -14 -8 -16 -4 -2 -23
-34 -42 -73 -19 -38 -38 -72 -41 -75 -4 -3 -13 -21 -22 -41 -20 -50 -88 -105
-137 -112 -21 -3 -53 -12 -71 -21 -27 -14 -37 -14 -61 -4 -15 7 -28 16 -28 20
0 5 -7 8 -15 8 -8 0 -15 3 -15 8 0 4 -32 41 -70 82 -38 41 -70 78 -70 82 0 4
-6 16 -14 25 -61 74 -90 118 -123 183 l-38 75 0 145 c0 80 4 154 9 165 5 11
10 27 12 35 8 45 37 140 53 175 11 22 28 60 40 85 18 39 19 46 6 60 -8 9 -15
20 -15 24 0 4 -18 25 -41 47 l-41 40 -18 -33 c-10 -18 -25 -47 -33 -64 -8 -17
-31 -44 -51 -59 -36 -28 -37 -28 -143 -21 -59 4 -114 11 -123 16 -9 5 -119 9
-245 10 -137 0 -234 5 -240 11 -6 6 -5 15 3 27 7 9 18 29 25 45 6 15 15 27 20
27 4 0 6 4 3 9 -3 5 1 14 9 21 18 15 21 170 4 187 -6 6 -17 69 -25 139 -15
143 -5 274 22 274 8 0 14 7 14 15 0 8 10 20 22 26 29 15 144 6 166 -14 9 -8
44 -20 77 -27 33 -7 67 -18 75 -25 15 -12 130 -39 137 -31 2 2 -12 33 -30 68
-19 36 -37 77 -40 90 -13 49 -38 68 -107 78 -36 6 -74 14 -85 19 -11 5 -42 12
-69 15 -28 4 -52 10 -55 14 -4 4 -23 18 -44 32 -20 14 -40 34 -43 45 -4 11
-15 31 -25 44 -11 13 -19 33 -19 45 0 12 -5 27 -11 33 -6 6 -13 40 -16 75 -4
52 -1 73 17 113 28 61 60 105 77 105 7 0 13 4 13 10 0 15 43 22 72 11 26 -10
39 -19 104 -74 l33 -28 -6 38 c-3 21 -10 41 -16 44 -5 4 -5 9 2 13 13 8 15 53
2 60 -5 3 -12 27 -15 53 -4 27 -11 69 -17 96 -8 33 -8 51 -1 60 7 8 7 18 2 27
-6 8 -10 10 -10 4 0 -15 -85 -104 -99 -104 -7 0 -9 -4 -6 -10 3 -5 -3 -10 -14
-10 -11 0 -23 -5 -26 -10 -10 -17 -87 -50 -115 -50 -14 0 -30 -4 -36 -9 -9
-10 -44 -15 -80 -13 -28 3 -134 113 -134 140 0 6 -6 15 -13 19 -6 4 -20 24
-31 43 -74 138 -105 203 -101 210 3 5 1 11 -5 15 -12 7 -14 45 -2 45 4 0 8 13
7 29 0 16 -3 27 -7 24 -5 -2 -8 0 -8 6 0 5 6 12 13 14 9 4 9 8 -2 15 -12 8
-10 15 8 37 25 33 26 44 4 60 -15 11 -15 14 0 36 10 13 17 29 17 37 0 7 9 22
20 34 11 12 20 19 20 15 0 -3 14 7 31 23 42 38 171 59 251 42 29 -6 69 -14 88
-17 37 -5 41 -7 163 -74 59 -32 77 -38 77 -26 0 9 7 18 15 21 20 8 20 121 0
160 -19 36 -19 113 -1 139 7 11 16 41 20 67 4 26 13 54 20 61 7 7 16 29 20 50
4 20 11 37 17 37 6 0 14 12 20 28 5 15 26 38 47 51 46 31 71 60 72 84 0 21
-23 22 -120 6 -58 -10 -73 -9 -92 3 -13 8 -39 18 -58 22 -20 3 -43 14 -52 24
-10 9 -29 28 -43 42 -27 26 -28 56 -5 135 5 17 12 41 14 55 6 29 68 98 74 81
2 -6 11 -11 21 -11 9 0 34 -9 56 -20 21 -11 41 -18 43 -15 3 2 17 -4 32 -15
16 -11 38 -20 49 -20 12 0 29 -4 39 -9 38 -21 109 -51 119 -51 6 0 24 -7 39
-15 40 -21 51 -19 58 9 3 13 8 31 11 38 4 10 -6 18 -35 27 -22 6 -40 16 -40
21 0 6 -7 10 -16 10 -25 0 -204 78 -215 93 -3 5 -9 8 -13 7 -14 -4 -66 19 -66
29 0 6 -6 11 -12 11 -8 0 -13 13 -13 33 0 33 14 52 90 133 l40 43 112 2 c62 1
116 0 120 -4 3 -4 17 -7 31 -7 33 0 122 -94 122 -130 0 -8 11 4 25 28 24 42
24 43 9 115 -23 108 -15 291 16 382 14 39 28 72 32 75 4 3 10 25 14 48 3 23
13 47 20 53 8 6 14 19 14 28 0 9 9 31 20 49 11 18 20 38 20 45 0 7 9 23 20 35
11 12 20 27 20 33 0 19 31 48 45 43 7 -3 16 -1 19 5 4 6 16 5 34 -5 15 -8 54
-26 87 -39 33 -14 67 -30 75 -36 8 -5 30 -16 49 -25 19 -8 40 -22 48 -30 22
-22 36 -17 76 24 l37 38 -45 47 c-25 26 -58 49 -73 52 -15 3 -40 12 -55 20
-16 8 -42 15 -59 15 -22 0 -40 10 -62 33 -36 38 -40 59 -21 113 17 49 25 51
235 57 91 3 166 6 168 6 1 1 2 19 2 41 l0 40 145 0 c80 0 145 2 145 5 0 3 -9
18 -20 33 -11 15 -24 51 -30 80 -5 29 -14 60 -19 70 -5 9 -7 30 -4 45 3 15 1
33 -5 40 -13 15 -32 150 -32 229 0 40 6 72 19 97 11 20 22 53 26 73 7 43 58
89 100 92 14 0 25 4 25 9 0 12 181 7 232 -6 47 -13 112 -62 102 -79 -3 -4 0
-8 5 -8 6 0 11 -12 11 -26 0 -14 6 -32 13 -39 8 -7 17 -41 20 -76 4 -34 11
-67 17 -74 5 -6 14 -34 20 -63 6 -28 18 -56 26 -63 8 -6 14 -19 14 -29 0 -9 6
-30 14 -46 35 -73 56 -124 56 -138 0 -9 2 -16 5 -16 17 0 125 34 125 40 0 3
-7 15 -15 26 -8 10 -15 26 -15 35 0 9 -7 22 -15 29 -8 7 -17 28 -20 49 -4 20
-14 54 -24 76 -11 23 -21 77 -25 129 -4 49 -10 94 -15 100 -9 12 -8 71 2 99 4
9 10 25 14 35 3 9 5 24 4 33 -1 8 8 24 19 34 11 10 20 23 20 29 0 7 9 18 20
26 11 8 20 20 20 26 0 16 69 76 80 69 5 -3 21 6 36 20 28 26 44 32 44 15z
m2500 0 c0 -5 -4 -10 -10 -10 -5 0 -10 5 -10 10 0 6 5 10 10 10 6 0 10 -4 10
-10z m-3245 -10 c3 -5 1 -10 -4 -10 -6 0 -11 5 -11 10 0 6 2 10 4 10 3 0 8 -4
11 -10z m2885 -17 c0 -20 -3 -24 -11 -16 -7 7 -9 19 -6 27 10 24 17 19 17 -11z
m-668 -6 c-7 -8 -8 -18 -4 -22 4 -5 1 -5 -5 -1 -7 4 -13 2 -13 -3 0 -9 20 -14
46 -10 4 0 11 -5 15 -13 6 -8 9 -9 9 -1 0 8 12 7 45 -3 25 -7 52 -11 60 -8 8
4 18 -1 21 -10 3 -9 11 -16 18 -16 6 0 30 -17 53 -38 23 -20 60 -50 82 -67 22
-16 40 -35 41 -42 0 -6 9 -14 20 -18 11 -3 28 -17 38 -30 11 -13 22 -22 25
-19 3 4 23 -10 43 -30 20 -20 42 -36 48 -36 40 -1 142 -104 118 -119 -5 -3
-14 -16 -21 -28 -7 -15 -21 -23 -36 -23 -14 0 -25 -5 -25 -11 0 -7 -15 -9 -42
-5 -24 3 -98 10 -165 16 -68 5 -142 15 -165 21 -24 5 -70 16 -103 23 -84 17
-128 49 -164 119 -17 32 -28 64 -25 72 3 8 -1 24 -10 37 -20 29 -21 114 -1
152 8 15 15 34 15 41 0 14 81 97 88 90 3 -3 0 -11 -6 -18z m83 12 c4 -6 5 -12
2 -15 -7 -7 -37 7 -37 17 0 13 27 11 35 -2z m-2250 -10 c12 -19 -5 -23 -22 -6
-16 16 -16 17 -1 17 9 0 20 -5 23 -11z m3202 -11 c-3 -8 -6 -5 -6 6 -1 11 2
17 5 13 3 -3 4 -12 1 -19z m-3137 -8 c12 -8 9 -10 -12 -10 -16 0 -28 5 -28 10
0 13 20 13 40 0z m-1280 -20 c0 -11 -4 -20 -10 -20 -5 0 -10 9 -10 20 0 11 5
20 10 20 6 0 10 -9 10 -20z m470 6 c0 -8 -4 -18 -10 -21 -5 -3 -10 3 -10 14 0
12 5 21 10 21 6 0 10 -6 10 -14z m4057 -8 c-3 -8 -6 -5 -6 6 -1 11 2 17 5 13
3 -3 4 -12 1 -19z m-4869 -13 c-3 -3 -9 2 -12 12 -6 14 -5 15 5 6 7 -7 10 -15
7 -18z m199 3 c-3 -8 -6 -5 -6 6 -1 11 2 17 5 13 3 -3 4 -12 1 -19z m513 -80
c0 -115 -10 -127 -15 -16 -3 68 2 118 11 118 2 0 4 -46 4 -102z m557 5 c-2
-21 -4 -6 -4 32 0 39 2 55 4 38 2 -18 2 -50 0 -70z m413 87 c8 -5 12 -11 9
-14 -7 -8 -49 5 -49 15 0 12 21 11 40 -1z m2190 0 c0 -5 -7 -10 -15 -10 -8 0
-15 5 -15 10 0 6 7 10 15 10 8 0 15 -4 15 -10z m543 -84 c-9 -13 -21 27 -21
69 0 27 2 25 14 -14 7 -24 10 -49 7 -55z m1317 84 c8 -5 11 -12 8 -15 -4 -4
-17 0 -30 9 -24 17 -5 23 22 6z m-1473 -22 c-3 -8 -6 -5 -6 6 -1 11 2 17 5 13
3 -3 4 -12 1 -19z m-2497 2 c0 -5 -11 -10 -25 -10 -14 0 -25 5 -25 10 0 6 11
10 25 10 14 0 25 -4 25 -10z m3007 -112 c-2 -24 -4 -7 -4 37 0 44 2 63 4 43 2
-21 2 -57 0 -80z m573 87 c0 -14 -4 -25 -10 -25 -5 0 -10 11 -10 25 0 14 5 25
10 25 6 0 10 -11 10 -25z m-5750 1 c0 -3 -4 -8 -10 -11 -5 -3 -10 -1 -10 4 0
6 5 11 10 11 6 0 10 -2 10 -4z m757 -33 c-3 -10 -5 -4 -5 12 0 17 2 24 5 18 2
-7 2 -21 0 -30z m2588 -8 c14 -19 25 -38 25 -44 0 -6 4 -11 9 -11 5 0 12 -15
15 -34 4 -19 13 -39 20 -45 7 -6 16 -38 20 -71 4 -33 11 -62 16 -65 6 -4 10
-31 10 -62 0 -65 -27 -113 -65 -113 -32 0 -75 20 -75 35 0 7 -7 18 -15 25 -19
16 -65 114 -65 138 0 10 -5 23 -11 29 -15 15 -24 120 -12 135 6 7 14 35 17 61
11 75 63 85 111 22z m1221 18 c24 -16 44 -31 44 -35 0 -14 -17 -8 -34 11 -10
11 -28 22 -42 25 -13 4 -24 11 -24 16 0 15 9 12 56 -17z m124 8 c0 -11 -4 -23
-10 -26 -6 -4 -10 5 -10 19 0 14 5 26 10 26 6 0 10 -9 10 -19z m580 -74 c0
-53 5 -88 13 -96 9 -11 7 -10 -10 0 -21 13 -23 21 -23 96 0 49 4 83 10 83 6 0
10 -34 10 -83z m-5293 41 c-3 -8 -6 -5 -6 6 -1 11 2 17 5 13 3 -3 4 -12 1 -19z
m1220 -30 c-2 -13 -4 -5 -4 17 -1 22 1 32 4 23 2 -10 2 -28 0 -40z m-882 24
c-3 -3 -11 0 -18 7 -9 10 -8 11 6 5 10 -3 15 -9 12 -12z m5412 -14 c-3 -8 -6
-5 -6 6 -1 11 2 17 5 13 3 -3 4 -12 1 -19z m-5157 2 c8 -5 11 -10 5 -10 -5 0
-17 5 -25 10 -8 5 -10 10 -5 10 6 0 17 -5 25 -10z m-600 -57 c0 -34 -4 -53 -9
-45 -4 7 -7 30 -5 50 3 49 3 52 9 52 3 0 5 -26 5 -57z m4720 35 c0 -23 -18
-23 -50 1 l-24 19 37 -1 c29 -1 37 -5 37 -19z m-4315 -8 c3 -6 -1 -7 -9 -4
-18 7 -21 14 -7 14 6 0 13 -4 16 -10z m1295 -19 c0 -17 -5 -33 -11 -36 -5 -4
-14 -18 -19 -30 -5 -13 -24 -32 -42 -41 -39 -20 -114 -29 -123 -14 -5 8 52 16
86 12 4 -1 25 16 48 37 31 29 41 45 41 69 0 18 5 32 10 32 6 0 10 -13 10 -29z
m4323 22 c-7 -2 -19 -2 -25 0 -7 3 -2 5 12 5 14 0 19 -2 13 -5z m110 0 c-7 -2
-19 -2 -25 0 -7 3 -2 5 12 5 14 0 19 -2 13 -5z m-170 -10 c-7 -2 -19 -2 -25 0
-7 3 -2 5 12 5 14 0 19 -2 13 -5z m257 -8 c13 -16 0 -21 -15 -6 -6 5 -19 11
-30 14 -16 4 -14 5 6 6 15 0 32 -6 39 -14z m-4993 -32 c-3 -10 -5 -4 -5 12 0
17 2 24 5 18 2 -7 2 -21 0 -30z m-430 5 c-3 -8 -6 -5 -6 6 -1 11 2 17 5 13 3
-3 4 -12 1 -19z m4073 0 c0 -16 -3 -19 -11 -11 -6 6 -8 16 -5 22 11 17 16 13
16 -11z m1411 -15 l24 -28 -30 25 c-16 14 -32 26 -34 28 -2 1 0 2 6 2 5 0 20
-12 34 -27z m236 -5 c-3 -8 -6 -5 -6 6 -1 11 2 17 5 13 3 -3 4 -12 1 -19z
m-6041 -15 c-7 -7 -26 7 -26 19 0 6 6 6 15 -2 9 -7 13 -15 11 -17z m5376 -5
c-8 -8 -9 -4 -5 13 4 13 8 18 11 10 2 -7 -1 -18 -6 -23z m-5322 -30 c0 -12 -6
-9 -26 13 -19 22 -19 22 4 8 12 -8 22 -17 22 -21z m729 23 c8 -5 9 -11 3 -15
-5 -3 -15 1 -22 9 -14 16 -3 20 19 6z m3640 -23 c15 -41 39 -68 63 -68 11 0
17 -4 14 -9 -3 -5 6 -12 21 -16 16 -3 31 -11 34 -16 3 -6 14 -11 23 -13 10 -1
21 -7 24 -13 7 -10 46 -33 56 -33 3 0 6 7 6 15 0 8 5 15 10 15 6 0 10 -7 10
-15 0 -22 -47 -112 -70 -135 -19 -19 -19 -18 -59 23 -23 23 -41 47 -41 52 0 6
-12 27 -26 46 -26 34 -67 115 -68 134 -1 6 -7 16 -13 23 -15 16 -17 42 -4 42
5 0 14 -14 20 -32z m-3589 2 c0 -5 -7 -10 -16 -10 -8 0 -12 5 -9 10 3 6 10 10
16 10 5 0 9 -4 9 -10z m3886 -6 c-3 -9 -6 -20 -6 -25 0 -5 -4 -9 -10 -9 -11 0
-14 33 -3 43 12 13 25 7 19 -9z m179 6 c3 -5 18 -10 32 -10 15 0 24 -3 20 -6
-9 -9 -77 5 -77 16 0 13 17 13 25 0z m932 -22 c-3 -7 -5 -2 -5 12 0 14 2 19 5
13 2 -7 2 -19 0 -25z m-5186 -10 c-3 -21 -6 -26 -9 -15 -3 17 3 47 11 47 2 0
1 -15 -2 -32z m-1104 0 c-3 -8 -6 -5 -6 6 -1 11 2 17 5 13 3 -3 4 -12 1 -19z
m543 12 c0 -5 -2 -10 -4 -10 -3 0 -8 5 -11 10 -3 6 -1 10 4 10 6 0 11 -4 11
-10z m846 0 c8 0 14 -4 14 -10 0 -12 -33 -13 -45 -1 -6 5 -17 11 -25 14 -8 2
-2 3 14 1 16 -2 35 -4 42 -4z m4282 3 c-10 -2 -18 -9 -18 -14 0 -5 -7 -9 -15
-9 -8 0 -15 4 -15 9 0 10 24 19 50 19 10 0 9 -2 -2 -5z m-218 -13 c0 -5 -2
-10 -4 -10 -3 0 -8 5 -11 10 -3 6 -1 10 4 10 6 0 11 -4 11 -10z m357 -12 c-3
-8 -6 -5 -6 6 -1 11 2 17 5 13 3 -3 4 -12 1 -19z m676 -3 c4 -8 2 -17 -3 -20
-6 -4 -10 3 -10 14 0 25 6 27 13 6z m-5906 -1 c-3 -3 -12 -4 -19 -1 -8 3 -5 6
6 6 11 1 17 -2 13 -5z m4570 -71 c-3 -10 -5 -2 -5 17 0 19 2 27 5 18 2 -10 2
-26 0 -35z m1170 10 c-3 -10 -5 -4 -5 12 0 17 2 24 5 18 2 -7 2 -21 0 -30z
m-5227 11 c0 -8 -5 -12 -10 -9 -6 4 -8 11 -5 16 9 14 15 11 15 -7z m5407 -36
c-2 -13 -4 -5 -4 17 -1 22 1 32 4 23 2 -10 2 -28 0 -40z m-707 -18 c0 -33 -4
-60 -10 -60 -11 0 -14 103 -3 113 12 12 13 8 13 -53z m-5086 21 c4 -5 -3 -7
-14 -4 -23 6 -26 13 -6 13 8 0 17 -4 20 -9z m186 -39 c0 -3 -9 3 -20 13 -11
10 -20 23 -20 28 0 6 9 0 20 -13 11 -13 20 -25 20 -28z m-822 13 c-3 -3 -9 2
-12 12 -6 14 -5 15 5 6 7 -7 10 -15 7 -18z m998 -26 c-17 -25 -20 -19 -10 19
5 15 10 20 16 14 7 -7 5 -18 -6 -33z m442 22 c11 -6 27 -11 36 -11 20 0 53
-44 61 -83 4 -18 11 -36 15 -42 4 -5 11 -29 15 -52 4 -24 11 -45 15 -48 5 -3
6 -21 3 -41 -3 -20 0 -45 7 -59 15 -27 8 -92 -12 -112 -7 -7 -38 -17 -67 -23
-64 -12 -288 -13 -348 -1 -47 9 -134 77 -127 99 2 6 -1 12 -6 12 -13 0 -13
127 0 135 6 4 8 10 6 14 -3 4 4 18 15 29 11 12 17 22 13 22 -3 0 -1 6 5 13 6
8 8 16 5 19 -3 3 9 12 25 19 17 8 31 20 31 28 0 8 7 11 20 8 11 -3 23 0 27 5
4 7 1 8 -7 3 -8 -5 -11 -3 -8 6 3 8 13 13 22 13 10 -1 15 0 12 3 -9 9 19 31
32 25 8 -3 17 -1 21 4 21 29 144 39 189 15z m3912 -5 c-14 -7 -29 -10 -34 -8
-11 6 20 20 44 21 8 0 4 -5 -10 -13z m144 8 c9 -3 16 -11 16 -16 0 -7 -4 -7
-13 0 -7 6 -30 12 -52 15 l-40 4 37 1 c20 1 43 -1 52 -4z m763 -31 c-3 -10 -5
-4 -5 12 0 17 2 24 5 18 2 -7 2 -21 0 -30z m-962 7 c3 -5 -1 -10 -9 -10 -8 0
-22 -7 -31 -16 -9 -9 -19 -13 -23 -9 -4 4 -1 10 6 12 7 3 18 11 25 19 14 16
24 17 32 4z m285 -31 c18 -33 7 -41 -12 -9 -9 17 -13 30 -8 30 5 0 14 -9 20
-21z m857 -16 c-3 -10 -5 -4 -5 12 0 17 2 24 5 18 2 -7 2 -21 0 -30z m-6189
10 c-10 -2 -28 -2 -40 0 -13 2 -5 4 17 4 22 1 32 -1 23 -4z m626 -22 c16 -16
27 -33 25 -38 -2 -5 -19 8 -38 29 -39 44 -28 52 13 9z m4330 -6 c-16 -25 -16
-27 2 -40 10 -7 32 -24 48 -38 17 -14 34 -24 38 -21 5 3 8 2 7 -3 -1 -4 -1
-15 0 -23 1 -12 3 -13 10 -1 7 10 12 8 25 -10 9 -13 16 -20 16 -16 0 4 9 -1
19 -10 10 -10 35 -32 54 -50 20 -18 40 -40 46 -50 6 -10 11 -12 11 -6 0 7 24
-12 54 -41 39 -39 57 -51 65 -43 6 6 14 8 18 4 10 -10 -29 -37 -46 -32 -7 3
-20 0 -28 -6 -9 -8 -58 -10 -167 -7 -175 6 -222 21 -265 84 -41 60 -33 195 14
234 8 7 15 17 15 22 0 11 72 89 77 84 3 -2 -3 -16 -13 -31z m1085 -5 c0 -10
-3 -8 -9 5 -12 27 -12 43 0 25 5 -8 9 -22 9 -30z m-6442 -2 c-3 -8 -6 -5 -6 6
-1 11 2 17 5 13 3 -3 4 -12 1 -19z m793 12 c0 -5 -8 -10 -17 -10 -15 0 -16 2
-3 10 19 12 20 12 20 0z m-303 -6 c-3 -3 -12 -4 -19 -1 -8 3 -5 6 6 6 11 1 17
-2 13 -5z m56 -1 c-7 -2 -19 -2 -25 0 -7 3 -2 5 12 5 14 0 19 -2 13 -5z m567
-18 c-13 -14 -28 -25 -33 -25 -6 0 0 11 13 25 13 14 28 25 33 25 6 0 0 -11
-13 -25z m4756 -12 c-11 -11 -19 6 -11 24 8 17 8 17 12 0 3 -10 2 -21 -1 -24z
m-5139 21 c-3 -3 -12 -4 -19 -1 -8 3 -5 6 6 6 11 1 17 -2 13 -5z m5878 -3 c3
-5 1 -12 -5 -16 -5 -3 -10 1 -10 9 0 18 6 21 15 7z m-845 -21 c0 -5 -4 -10
-10 -10 -5 0 -10 5 -10 10 0 6 5 10 10 10 6 0 10 -4 10 -10z m-5760 -60 l-11
-25 6 25 c2 14 5 34 6 45 2 19 2 19 6 0 2 -12 -1 -32 -7 -45z m5877 28 c-3 -8
-6 -5 -6 6 -1 11 2 17 5 13 3 -3 4 -12 1 -19z m-107 -14 c0 -8 -5 -12 -10 -9
-6 4 -8 11 -5 16 9 14 15 11 15 -7z m857 -26 c-3 -8 -6 -5 -6 6 -1 11 2 17 5
13 3 -3 4 -12 1 -19z m-5709 -36 c12 -8 22 -19 22 -25 0 -5 -8 -3 -18 6 -19
18 -44 21 -102 13 -19 -3 -26 -3 -15 1 11 3 28 11 39 18 19 14 36 11 74 -13z
m4859 6 c-3 -8 -6 -5 -6 6 -1 11 2 17 5 13 3 -3 4 -12 1 -19z m133 -46 c0 -14
-4 -21 -11 -16 -6 3 -9 15 -6 25 3 11 1 19 -4 19 -5 0 -9 8 -9 18 1 15 2 15
15 -2 8 -11 15 -30 15 -44z m-5713 42 c-3 -3 -12 -4 -19 -1 -8 3 -5 6 6 6 11
1 17 -2 13 -5z m66 -11 c-7 -2 -19 -2 -25 0 -7 3 -2 5 12 5 14 0 19 -2 13 -5z
m6392 -4 c11 -16 1 -19 -13 -3 -7 8 -8 14 -3 14 5 0 13 -5 16 -11z m-5878 -21
c-3 -8 -6 -5 -6 6 -1 11 2 17 5 13 3 -3 4 -12 1 -19z m5023 -2 c0 -8 -4 -18
-10 -21 -5 -3 -10 3 -10 14 0 12 5 21 10 21 6 0 10 -6 10 -14z m-5440 -6 c8
-5 11 -10 5 -10 -5 0 -17 5 -25 10 -8 5 -10 10 -5 10 6 0 17 -5 25 -10z m6160
-25 c0 -5 -5 -3 -10 5 -5 8 -10 20 -10 25 0 6 5 3 10 -5 5 -8 10 -19 10 -25z
m-6844 -2 c-6 -6 -36 9 -36 18 0 5 9 4 20 -3 10 -7 18 -14 16 -15z m1294 12
c0 -8 -4 -15 -10 -15 -5 0 -10 7 -10 15 0 8 5 15 10 15 6 0 10 -7 10 -15z
m-1007 -10 c-3 -9 -8 -14 -10 -11 -3 3 -2 9 2 15 9 16 15 13 8 -4z m483 -12
c-7 -7 -26 7 -26 19 0 6 6 6 15 -2 9 -7 13 -15 11 -17z m-721 -21 c-3 -3 -11
0 -18 7 -9 10 -8 11 6 5 10 -3 15 -9 12 -12z m772 12 c-3 -3 -12 -4 -19 -1 -8
3 -5 6 6 6 11 1 17 -2 13 -5z m249 -3 c-15 -23 -82 -47 -116 -40 -34 6 -33 6
12 8 28 0 50 7 55 15 7 12 28 23 46 25 5 1 6 -3 3 -8z m264 -21 c15 -16 32
-30 38 -30 5 0 26 -18 46 -40 49 -54 47 -80 -9 -146 -25 -28 -45 -55 -45 -58
0 -3 -7 -14 -16 -23 -37 -43 -94 -122 -94 -132 0 -6 -5 -11 -11 -11 -5 0 -8
-4 -5 -9 3 -5 -1 -14 -9 -21 -8 -7 -15 -21 -15 -31 0 -11 -5 -19 -12 -19 -6 0
-9 -3 -5 -6 3 -4 -4 -21 -17 -38 -13 -17 -22 -36 -19 -42 2 -6 -15 -28 -38
-49 l-42 -37 -100 6 c-55 4 -105 10 -111 15 -6 4 -42 9 -81 10 -38 1 -74 6
-78 11 -5 4 0 17 12 29 12 12 21 26 21 31 0 6 5 10 11 10 5 0 8 4 4 9 -3 5 4
12 15 16 11 4 18 11 14 16 -3 6 3 18 13 27 10 9 36 40 56 69 21 28 41 53 45
55 4 2 25 26 46 53 22 28 58 68 80 90 22 22 39 41 38 43 -6 6 43 52 56 52 6 0
12 5 12 11 0 5 5 7 12 3 6 -4 8 -3 5 3 -6 9 94 113 109 113 12 0 30 26 26 38
-7 22 20 12 48 -18z m-460 10 c0 -5 -4 -10 -10 -10 -5 0 -10 5 -10 10 0 6 5
10 10 10 6 0 10 -4 10 -10z m5367 -12 c-3 -8 -6 -5 -6 6 -1 11 2 17 5 13 3 -3
4 -12 1 -19z m-5840 -10 c-3 -8 -6 -5 -6 6 -1 11 2 17 5 13 3 -3 4 -12 1 -19z
m508 12 c3 -5 -1 -10 -10 -10 -9 0 -13 5 -10 10 3 6 8 10 10 10 2 0 7 -4 10
-10z m5222 -32 c-3 -8 -6 -5 -6 6 -1 11 2 17 5 13 3 -3 4 -12 1 -19z m924 4
c-7 -2 -18 1 -23 6 -8 8 -4 9 13 5 13 -4 18 -8 10 -11z m-6858 1 c-13 -2 -33
-2 -45 0 -13 2 -3 4 22 4 25 0 35 -2 23 -4z m6067 -18 c0 -8 -4 -15 -10 -15
-5 0 -10 7 -10 15 0 8 5 15 10 15 6 0 10 -7 10 -15z m835 -15 c3 -6 -1 -7 -9
-4 -18 7 -21 14 -7 14 6 0 13 -4 16 -10z m-797 -77 c36 -49 20 -51 -18 -3 -22
28 -30 46 -24 58 6 15 8 15 12 -3 2 -11 16 -34 30 -52z m-183 47 c3 -5 1 -10
-4 -10 -6 0 -11 5 -11 10 0 6 2 10 4 10 3 0 8 -4 11 -10z m755 0 c0 -5 -5 -10
-11 -10 -5 0 -7 5 -4 10 3 6 8 10 11 10 2 0 4 -4 4 -10z m278 -35 c-3 -3 -9 2
-12 12 -6 14 -5 15 5 6 7 -7 10 -15 7 -18z m-7061 -11 c-3 -3 -12 -4 -19 -1
-8 3 -5 6 6 6 11 1 17 -2 13 -5z m7166 -1 c-7 -2 -19 -2 -25 0 -7 3 -2 5 12 5
14 0 19 -2 13 -5z m50 0 c-7 -2 -19 -2 -25 0 -7 3 -2 5 12 5 14 0 19 -2 13 -5z
m-6893 -37 c0 -8 -4 -18 -10 -21 -5 -3 -10 3 -10 14 0 12 5 21 10 21 6 0 10
-6 10 -14z m-225 -7 c11 -17 2 -18 -19 -3 -17 12 -17 14 -4 14 9 0 20 -5 23
-11z m6495 -19 c0 -5 -4 -10 -10 -10 -5 0 -10 5 -10 10 0 6 5 10 10 10 6 0 10
-4 10 -10z m-6440 -30 c0 -6 -9 -2 -20 7 -11 10 -20 19 -20 21 0 1 9 -2 20 -8
11 -6 20 -15 20 -20z m6113 16 c4 -10 1 -13 -8 -9 -8 3 -12 9 -9 14 7 12 11
11 17 -5z m717 -1 c7 -9 11 -17 8 -20 -2 -2 -12 4 -21 15 -9 11 -13 20 -8 20
5 0 14 -7 21 -15z m-465 -34 c-3 -6 -11 -11 -16 -11 -5 0 -4 6 3 14 14 16 24
13 13 -3z m-6185 -28 c0 -41 -6 -41 -14 -1 -4 23 0 38 11 38 2 0 3 -16 3 -37z
m5960 27 c0 -5 -4 -10 -10 -10 -5 0 -10 5 -10 10 0 6 5 10 10 10 6 0 10 -4 10
-10z m-220 -11 c0 -4 7 -6 15 -3 9 4 15 0 15 -10 0 -9 5 -16 10 -16 6 0 10
-11 10 -25 0 -14 -5 -25 -12 -25 -9 0 -9 -3 -1 -11 8 -8 9 -19 2 -38 -7 -17
-7 -27 0 -29 6 -2 11 -9 11 -16 0 -7 12 -19 26 -27 14 -7 36 -25 48 -39 20
-25 53 -45 68 -42 3 1 11 -12 17 -28 5 -17 15 -30 20 -30 17 0 13 -56 -4 -70
-8 -7 -15 -18 -15 -24 0 -17 -50 -63 -81 -75 -30 -11 -109 11 -148 41 -13 10
-30 18 -37 18 -8 0 -14 5 -14 10 0 6 -4 10 -10 10 -17 0 -111 65 -203 139 -51
41 -98 71 -111 71 -12 0 -27 5 -33 11 -7 7 -36 16 -65 20 -66 10 -88 34 -88
94 0 102 10 105 328 104 138 -1 252 -5 252 -10z m400 -2 c0 -2 -12 -14 -27
-28 -20 -18 -24 -19 -13 -4 18 24 40 42 40 32z m-173 -29 c-3 -8 -6 -5 -6 6
-1 11 2 17 5 13 3 -3 4 -12 1 -19z m-6110 -10 c-3 -8 -6 -5 -6 6 -1 11 2 17 5
13 3 -3 4 -12 1 -19z m6981 15 c-21 -2 -55 -2 -75 0 -21 2 -4 4 37 4 41 0 58
-2 38 -4z m-271 -35 c-3 -7 -5 -2 -5 12 0 14 2 19 5 13 2 -7 2 -19 0 -25z
m-497 3 c0 -11 -59 -36 -67 -27 -3 3 1 6 9 6 9 0 21 7 28 15 14 17 30 20 30 6z
m-6063 -33 c-3 -7 -5 -2 -5 12 0 14 2 19 5 13 2 -7 2 -19 0 -25z m5978 22 c3
-5 1 -10 -4 -10 -6 0 -11 5 -11 10 0 6 2 10 4 10 3 0 8 -4 11 -10z m335 -4 c0
-2 -7 -6 -15 -10 -8 -3 -15 -1 -15 4 0 6 7 10 15 10 8 0 15 -2 15 -4z m-40
-16 c0 -5 -4 -10 -10 -10 -5 0 -10 5 -10 10 0 6 5 10 10 10 6 0 10 -4 10 -10z
m305 0 c3 -5 1 -10 -4 -10 -6 0 -11 5 -11 10 0 6 2 10 4 10 3 0 8 -4 11 -10z
m-6791 -25 c-28 -22 -40 -18 -13 4 13 11 26 17 28 15 3 -2 -4 -11 -15 -19z
m6426 -3 c0 -8 -43 -32 -57 -32 -3 0 4 9 17 20 24 21 40 26 40 12z m-6525 -42
c-27 -12 -43 -12 -25 0 8 5 22 9 30 9 10 0 8 -3 -5 -9z m6445 1 c0 -5 -11 -16
-25 -25 -15 -10 -25 -12 -25 -5 0 6 9 13 20 16 11 3 20 9 20 14 0 5 2 9 5 9 3
0 5 -4 5 -9z m-6520 -21 c11 -7 7 -10 -18 -10 -20 0 -31 4 -27 10 8 13 26 13
45 0z m7030 -15 c7 -9 8 -15 2 -15 -5 0 -12 7 -16 15 -3 8 -4 15 -2 15 2 0 9
-7 16 -15z m-566 -20 c5 -20 10 -23 29 -17 12 4 42 5 67 2 43 -6 42 -6 -24
-11 -76 -4 -89 0 -91 30 -2 29 12 26 19 -4z m186 -5 c0 -5 -4 -10 -10 -10 -5
0 -10 5 -10 10 0 6 5 10 10 10 6 0 10 -4 10 -10z m435 0 c3 -5 -1 -10 -9 -10
-9 0 -16 5 -16 10 0 6 4 10 9 10 6 0 13 -4 16 -10z m40 -20 c3 -5 2 -10 -4
-10 -5 0 -13 5 -16 10 -3 6 -2 10 4 10 5 0 13 -4 16 -10z m-6949 -44 c16 -17
19 -36 4 -36 -5 0 -10 7 -10 15 0 8 -6 15 -14 15 -8 0 -18 5 -21 10 -10 15 25
12 41 -4z m206 -8 c-7 -7 -12 -8 -12 -2 0 14 12 26 19 19 2 -3 -1 -11 -7 -17z
m6393 12 c-3 -5 -13 -10 -21 -10 -8 0 -14 5 -14 10 0 6 9 10 21 10 11 0 17 -4
14 -10z m125 6 c0 -11 -19 -15 -25 -6 -3 5 1 10 9 10 9 0 16 -2 16 -4z m390
-6 c25 -15 7 -18 -35 -5 -38 12 -39 13 -10 14 17 0 37 -3 45 -9z m-585 -20
c-3 -5 -12 -10 -18 -10 -7 0 -6 4 3 10 19 12 23 12 15 0z m300 -18 c-3 -3 -11
0 -18 7 -9 10 -8 11 6 5 10 -3 15 -9 12 -12z m-6635 4 c0 -2 -7 -9 -15 -16
-13 -11 -14 -10 -9 4 5 14 24 23 24 12z m6227 -70 c-28 -30 -56 -52 -60 -49
-9 5 90 103 104 103 5 0 -15 -24 -44 -54z m-6437 -3 c-11 -17 -11 -17 -6 0 3
10 6 24 7 30 0 9 2 9 5 0 3 -7 0 -20 -6 -30z m-140 17 c0 -5 -4 -10 -10 -10
-5 0 -10 5 -10 10 0 6 5 10 10 10 6 0 10 -4 10 -10z m7144 -10 c14 -5 26 -15
26 -22 0 -8 -3 -9 -8 -3 -4 6 -18 16 -32 22 -31 14 -21 17 14 3z m-7254 -17
c0 -5 -5 -15 -10 -23 -8 -12 -10 -11 -10 8 0 12 5 22 10 22 6 0 10 -3 10 -7z
m588 0 c-21 -2 -55 -2 -75 0 -21 2 -4 4 37 4 41 0 58 -2 38 -4z m110 0 c-10
-2 -28 -2 -40 0 -13 2 -5 4 17 4 22 1 32 -1 23 -4z m6682 -23 c11 -7 5 -8 -20
-4 -43 8 -51 14 -19 14 13 0 31 -5 39 -10z m-739 -70 c5 0 9 -9 9 -20 0 -10 8
-24 18 -29 9 -6 14 -11 10 -11 -11 0 33 -43 56 -55 21 -11 34 -35 19 -35 -5 0
-33 20 -62 45 -29 25 -56 45 -61 45 -4 0 -13 13 -20 29 -9 23 -9 34 1 53 l14
23 3 -22 c2 -13 8 -23 13 -23z m-6428 5 c-3 -9 -8 -14 -10 -11 -3 3 -2 9 2 15
9 16 15 13 8 -4z m-103 -57 c0 -10 -4 -18 -10 -18 -5 0 -10 15 -10 33 0 24 3
28 10 17 5 -8 10 -23 10 -32z m293 35 c-7 -2 -19 -2 -25 0 -7 3 -2 5 12 5 14
0 19 -2 13 -5z m187 -3 c0 -5 -9 -10 -19 -10 -11 0 -23 5 -26 10 -4 6 5 10 19
10 14 0 26 -4 26 -10z m-390 -20 c0 -5 -4 -10 -10 -10 -5 0 -10 5 -10 10 0 6
5 10 10 10 6 0 10 -4 10 -10z m150 5 c0 -7 -39 -45 -45 -45 -3 0 2 11 11 25
14 22 34 34 34 20z m703 -40 c17 -8 39 -15 50 -15 12 0 31 -10 44 -22 27 -25
31 -82 9 -113 -7 -11 -17 -36 -21 -55 -4 -20 -25 -53 -49 -77 -52 -54 -124
-72 -212 -52 -83 19 -92 38 -95 183 -1 116 -1 118 27 147 l28 30 95 -6 c53 -3
108 -12 124 -20z m-426 -25 c-4 -17 -2 -30 3 -30 6 0 10 -89 10 -235 l0 -235
-32 -36 -33 -35 -75 16 c-41 8 -81 22 -90 29 -8 7 -23 16 -32 19 -10 4 -18 11
-18 18 0 6 7 8 16 5 8 -3 12 -2 9 3 -3 5 -1 12 5 16 6 4 8 10 5 15 -3 5 3 16
12 26 10 10 19 29 20 42 1 14 7 28 14 32 6 4 12 19 12 34 1 14 5 26 10 26 4 0
7 6 7 13 0 8 9 22 20 32 11 10 17 21 15 25 -3 4 7 24 20 45 14 20 27 45 28 56
2 11 9 25 15 31 7 7 12 18 12 25 0 7 6 13 14 13 8 0 14 6 13 13 -1 40 4 67 14
67 7 0 9 -11 6 -30z m-587 1 c0 -6 -4 -13 -10 -16 -5 -3 -10 1 -10 9 0 9 5 16
10 16 6 0 10 -4 10 -9z m231 -48 c-12 -20 -14 -14 -5 12 4 9 9 14 11 11 3 -2
0 -13 -6 -23z m6544 -23 c3 -5 1 -10 -4 -10 -6 0 -11 5 -11 10 0 6 2 10 4 10
3 0 8 -4 11 -10z m81 -42 c10 -16 -1 -18 -29 -5 -39 18 -44 38 -6 25 16 -5 32
-14 35 -20z m-6849 -15 c-3 -10 -5 -4 -5 12 0 17 2 24 5 18 2 -7 2 -21 0 -30z
m6924 -33 c10 -6 19 -16 19 -22 0 -7 -7 -5 -17 4 -10 9 -25 18 -33 21 -10 4
-11 6 -2 6 7 1 22 -4 33 -9z m-6759 -42 c-9 -9 -12 -7 -12 12 0 19 3 21 12 12
9 -9 9 -15 0 -24z m6828 -3 c7 -9 10 -18 6 -22 -3 -3 -6 -1 -6 6 0 6 -10 16
-22 21 -16 6 -18 9 -7 9 9 1 22 -6 29 -14z m-7009 -76 c-22 -21 -46 -25 -56
-9 -3 6 3 10 14 10 39 0 51 11 53 49 l1 36 4 -34 c3 -24 -1 -38 -16 -52z
m7089 26 c7 -8 8 -15 2 -15 -5 0 -15 7 -22 15 -7 8 -8 15 -2 15 5 0 15 -7 22
-15z m-240 -27 c0 -13 -23 -5 -28 10 -2 7 2 10 12 6 9 -3 16 -11 16 -16z m305
1 c11 -17 2 -18 -25 -4 -24 14 -24 14 -3 15 12 0 25 -5 28 -11z m-6999 -26
c-10 -10 -19 5 -10 18 6 11 8 11 12 0 2 -7 1 -15 -2 -18z m6745 -3 c31 -26 15
-26 -18 0 -14 11 -21 20 -15 20 5 0 20 -9 33 -20z m-6974 4 c-3 -3 -12 -4 -19
-1 -8 3 -5 6 6 6 11 1 17 -2 13 -5z m271 -71 c9 -7 11 -13 4 -13 -12 0 -42 39
-42 55 0 5 6 1 12 -10 6 -11 18 -26 26 -32z m6763 29 c-7 -2 -18 1 -23 6 -8 8
-4 9 13 5 13 -4 18 -8 10 -11z m239 -7 c19 -22 8 -25 -12 -3 -10 10 -14 18 -9
18 5 0 14 -7 21 -15z m-205 -15 c3 -5 -1 -10 -9 -10 -9 0 -16 5 -16 10 0 6 4
10 9 10 6 0 13 -4 16 -10z m49 -36 c3 -8 13 -14 23 -14 12 0 14 -3 6 -11 -8
-8 -18 -4 -37 12 -14 12 -26 26 -26 30 0 13 28 -1 34 -17z m186 6 c0 -5 -4
-10 -10 -10 -5 0 -10 5 -10 10 0 6 5 10 10 10 6 0 10 -4 10 -10z m-6950 -40
c25 -21 40 -39 33 -40 -7 0 -22 10 -35 23 -13 12 -34 30 -48 39 -16 11 -20 17
-10 17 8 1 35 -17 60 -39z m-293 14 c-3 -3 -12 -4 -19 -1 -8 3 -5 6 6 6 11 1
17 -2 13 -5z m68 -17 c16 -13 15 -14 -13 -9 -18 2 -32 8 -32 13 0 13 24 11 45
-4z m65 -42 c13 -14 21 -27 18 -30 -2 -3 -17 9 -33 25 -16 17 -24 30 -19 30 6
0 21 -11 34 -25z m7020 -26 c0 -5 -9 -1 -20 8 -11 10 -20 22 -20 27 0 5 9 1
20 -9 11 -10 20 -22 20 -26z m130 11 c0 -5 -4 -10 -10 -10 -5 0 -10 5 -10 10
0 6 5 10 10 10 6 0 10 -4 10 -10z m-7075 -41 c6 -3 27 -15 47 -27 20 -13 39
-22 42 -20 2 2 12 -4 22 -13 11 -9 29 -20 42 -23 12 -4 22 -12 22 -17 0 -5 7
-9 15 -9 8 0 15 -3 15 -8 0 -4 10 -12 23 -17 19 -9 22 -19 25 -72 2 -39 -1
-63 -8 -63 -5 0 -9 -3 -8 -7 3 -9 -28 -57 -52 -84 -8 -10 -23 -29 -33 -43 -21
-31 -93 -70 -113 -62 -8 3 -14 2 -14 -2 0 -6 -24 -16 -92 -39 -10 -3 -18 -1
-18 5 0 6 14 14 32 17 30 7 60 28 58 40 -2 10 12 70 19 80 4 6 8 23 9 40 1 16
6 33 11 38 5 5 7 16 4 23 -3 8 0 14 6 14 6 0 10 3 9 8 -4 13 13 86 25 107 24
42 17 59 -35 85 -53 26 -98 60 -98 74 0 5 8 2 18 -6 9 -9 22 -17 27 -19z
m7089 5 c3 -8 2 -12 -4 -9 -6 3 -10 10 -10 16 0 14 7 11 14 -7z m-121 -16 c2
-13 8 -32 13 -43 7 -18 6 -18 -9 -6 -9 7 -14 17 -11 22 3 5 0 9 -5 9 -6 0 -11
9 -11 20 0 27 17 25 23 -2z m37 -148 c0 -33 -4 -60 -10 -60 -6 0 -10 27 -10
60 0 33 4 60 10 60 6 0 10 -27 10 -60z m-26 -104 c-3 -9 -10 -16 -15 -16 -6 0
-5 9 1 21 13 24 24 20 14 -5z m-41 -60 c-19 -26 -33 -33 -33 -16 0 6 5 10 11
10 5 0 8 4 4 9 -5 9 26 33 33 26 2 -2 -4 -15 -15 -29z m-40 -56 c-3 -11 -9
-20 -14 -20 -14 0 -11 28 4 33 6 3 13 6 14 6 0 1 -1 -8 -4 -19z m227 -70 c0
-5 -4 -10 -10 -10 -5 0 -10 5 -10 10 0 6 5 10 10 10 6 0 10 -4 10 -10z m-55
-60 c-21 -22 -44 -40 -49 -40 -6 0 8 18 29 40 21 22 44 40 49 40 6 0 -8 -18
-29 -40z m-7165 0 c0 -5 -12 -10 -26 -10 -14 0 -23 4 -19 10 3 6 15 10 26 10
10 0 19 -4 19 -10z m-139 -25 c-38 -17 -61 -19 -61 -6 0 11 24 18 65 19 l30 1
-34 -14z m435 -10 c10 -8 31 -15 46 -15 15 0 33 -6 40 -14 8 -7 27 -20 43 -29
17 -8 40 -25 53 -37 12 -11 22 -17 22 -13 1 4 7 -10 15 -32 17 -45 19 -81 6
-89 -4 -3 -11 -24 -14 -47 -3 -22 -12 -48 -19 -57 -8 -9 -20 -35 -27 -56 -15
-43 -66 -96 -93 -96 -9 0 -20 -5 -24 -11 -4 -7 -27 -10 -61 -7 -29 3 -56 1
-59 -3 -7 -11 -254 -9 -254 2 0 5 4 9 8 9 4 0 8 10 9 22 1 12 8 25 15 29 9 5
13 28 13 68 0 34 3 61 8 61 4 0 6 13 5 28 -1 15 1 33 6 40 4 7 2 12 -5 12 -8
0 -8 4 -1 13 6 7 11 22 11 32 0 23 7 70 11 70 1 0 3 19 5 43 l4 43 -32 -7
c-18 -3 -34 -10 -37 -15 -10 -15 -70 -23 -70 -9 0 7 8 10 18 8 10 -3 23 1 30
9 7 7 24 13 37 13 14 0 25 4 25 9 0 4 44 11 97 15 54 4 102 11 107 16 14 14
39 12 62 -5z m6808 -45 c-9 -16 -20 -30 -25 -30 -13 0 -11 8 9 35 24 34 33 31
16 -5z m-7253 -56 c-17 -14 -31 -32 -31 -40 0 -8 -4 -14 -10 -14 -5 0 -10 5
-10 10 0 14 57 70 71 70 6 0 -3 -12 -20 -26z m7229 10 c0 -3 -7 -12 -15 -21
-9 -8 -19 -28 -22 -44 -3 -16 -9 -29 -14 -29 -5 0 -9 -7 -9 -15 0 -8 4 -15 8
-15 9 0 8 -47 -1 -57 -4 -3 -2 -13 5 -20 6 -8 13 -38 14 -66 2 -74 2 -74 20
-91 8 -9 11 -16 5 -16 -15 0 7 -50 33 -75 23 -23 33 -55 16 -55 -12 0 -4 -40
18 -90 9 -19 16 -43 17 -55 0 -11 10 -24 23 -30 23 -10 30 -25 12 -25 -12 0
-73 41 -78 53 -2 4 -12 7 -21 7 -10 0 -26 9 -36 20 -10 11 -21 17 -25 15 -4
-2 -35 24 -69 59 -48 51 -61 71 -62 98 -3 84 4 146 22 184 10 22 19 46 19 52
0 7 5 12 11 12 5 0 8 4 5 8 -3 5 5 19 17 33 13 13 21 32 19 42 -2 9 1 17 6 17
6 0 16 16 22 35 6 19 15 35 20 35 5 0 12 9 15 20 6 18 25 29 25 14z m-7260
-109 c0 -14 -4 -25 -10 -25 -5 0 -10 11 -10 25 0 14 5 25 10 25 6 0 10 -11 10
-25z m20 -120 c0 -3 6 -13 15 -21 8 -9 15 -25 15 -37 l0 -21 -14 20 c-16 22
-34 84 -22 72 4 -3 7 -9 6 -13z m45 -105 c3 -5 1 -10 -4 -10 -6 0 -11 5 -11
10 0 6 2 10 4 10 3 0 8 -4 11 -10z m43 -45 c14 -16 17 -25 9 -25 -8 0 -24 11
-37 25 -17 18 -20 25 -9 25 9 0 25 -11 37 -25z m-121 -162 c-2 -21 -4 -6 -4
32 0 39 2 55 4 38 2 -18 2 -50 0 -70z m7453 -173 c0 -5 -7 -7 -15 -4 -8 4 -15
8 -15 10 0 2 7 4 15 4 8 0 15 -4 15 -10z m-7370 -34 c0 -8 -4 -18 -10 -21 -5
-3 -10 3 -10 14 0 12 5 21 10 21 6 0 10 -6 10 -14z m7368 -157 c-2 -6 -8 -10
-13 -10 -5 0 -11 4 -13 10 -2 6 4 11 13 11 9 0 15 -5 13 -11z m-18 -54 c0 -14
-4 -25 -10 -25 -5 0 -10 11 -10 25 0 14 5 25 10 25 6 0 10 -11 10 -25z m20
-197 c0 -5 -4 -6 -10 -3 -11 7 -14 -8 -3 -18 3 -4 7 -28 9 -53 2 -45 2 -45
-12 -19 -8 15 -12 31 -9 35 3 5 0 10 -6 12 -8 3 -10 16 -5 42 6 31 10 35 22
26 8 -7 14 -17 14 -22z m-7360 -149 c0 -5 4 -8 8 -5 14 8 122 -101 122 -123 0
-4 8 -19 18 -32 11 -13 25 -45 33 -71 7 -27 17 -48 21 -48 16 0 5 -57 -20
-105 -31 -57 -59 -75 -120 -75 -38 0 -106 22 -122 39 -3 4 -12 6 -20 6 -22 0
-26 62 -5 85 13 14 13 19 2 29 -16 13 -21 127 -6 137 5 3 9 10 9 15 0 6 -5 7
-11 3 -7 -4 -7 1 1 16 8 15 8 20 1 16 -21 -13 -13 69 10 98 21 26 79 38 79 15z
m7165 -159 c4 -6 12 -10 18 -9 16 2 77 -21 77 -30 0 -4 22 -24 49 -44 l49 -38
-3 -93 c-1 -52 -6 -99 -10 -106 -5 -9 -4 -11 3 -6 9 5 12 -73 12 -312 l0 -320
-81 -1 c-89 -1 -111 9 -176 76 -18 18 -36 33 -39 33 -23 0 -104 149 -104 192
0 14 -7 31 -15 38 -8 7 -15 23 -15 36 0 12 -5 26 -11 30 -6 4 -9 19 -5 37 3
16 1 36 -5 43 -17 21 -23 174 -8 209 7 17 13 37 14 45 1 21 67 119 104 155 31
29 104 71 128 74 6 0 15 -4 18 -9z m-6869 -441 c19 -33 36 -73 49 -109 1 -3 5
-14 10 -24 5 -11 3 -36 -4 -60 -7 -23 -16 -58 -20 -79 -5 -21 -15 -45 -23 -55
-8 -9 -18 -25 -21 -34 -4 -10 -20 -26 -36 -36 -27 -16 -37 -17 -83 -7 -68 15
-108 32 -108 45 0 6 -4 9 -10 5 -11 -7 -48 13 -71 38 -9 9 -21 17 -27 17 -6 0
-16 18 -22 39 -21 80 33 205 104 239 23 12 33 11 67 -2 36 -14 42 -14 74 1 19
9 35 23 35 31 0 8 8 20 17 27 14 10 21 10 39 -3 12 -9 25 -24 30 -33z m-350
-439 c5 0 32 -12 59 -25 28 -14 55 -25 61 -25 22 0 151 -72 190 -105 34 -29
39 -39 38 -75 -2 -48 -23 -75 -73 -91 -20 -7 -38 -15 -41 -18 -11 -13 -62 -31
-90 -31 -17 0 -30 -4 -30 -10 0 -15 -140 -13 -145 3 -2 6 -6 101 -7 209 -3
179 -2 195 13 182 8 -8 20 -14 25 -14z m7160 -165 c19 -19 39 -35 44 -35 6 0
10 -3 10 -7 0 -13 184 -11 192 1 9 14 10 -125 1 -217 l-6 -68 -31 7 c-17 3
-37 11 -43 16 -7 6 -20 8 -28 4 -9 -3 -26 -1 -38 6 -47 24 -57 28 -72 28 -8 0
-15 5 -15 10 0 6 -7 10 -15 10 -9 0 -19 8 -22 18 -4 9 -15 23 -25 30 -10 7
-18 20 -18 28 0 8 -5 14 -12 14 -6 0 -8 3 -5 6 3 4 0 16 -8 28 -10 13 -15 45
-15 88 l0 68 35 0 c27 0 44 -8 71 -35z m-240 -79 c30 -30 12 -58 -83 -129 -42
-32 -78 -50 -114 -58 -61 -13 -159 -6 -170 13 -10 16 55 75 93 83 15 4 28 10
28 15 0 5 17 14 38 20 20 7 44 19 53 26 9 8 19 11 22 7 4 -3 7 -1 7 5 0 7 12
12 28 13 15 0 36 4 47 9 29 12 35 12 51 -4z m64 -215 c0 -4 20 -11 45 -14 24
-4 61 -16 82 -27 21 -11 43 -20 50 -20 7 0 13 -5 13 -11 0 -5 4 -8 9 -5 5 3
14 -1 21 -9 7 -8 22 -15 34 -15 12 0 31 -6 42 -14 11 -8 37 -17 57 -21 20 -4
37 -11 37 -16 0 -5 5 -8 12 -7 32 7 -33 -358 -91 -507 -19 -49 -41 -71 -41
-41 0 9 -4 16 -10 16 -5 0 -10 6 -10 13 0 24 -89 96 -138 111 -10 4 -27 15
-37 26 -10 11 -24 20 -32 20 -15 0 -64 29 -75 45 -4 5 -8 6 -8 2 0 -5 -12 1
-26 12 -15 12 -31 21 -36 21 -9 0 -101 59 -128 82 -9 7 -28 19 -42 27 -46 24
-88 71 -88 100 0 47 53 115 141 178 31 22 67 36 119 46 95 18 100 19 100 8z
m-6691 -25 c9 -11 9 -20 2 -35 -6 -11 -8 -26 -6 -34 3 -7 -1 -20 -10 -27 -8
-7 -15 -23 -15 -36 0 -13 -4 -24 -9 -24 -4 0 -14 -20 -21 -45 -7 -25 -17 -48
-22 -51 -4 -3 -6 -10 -3 -15 4 -5 -1 -9 -9 -9 -9 0 -16 -7 -16 -15 0 -8 -5
-15 -11 -15 -5 0 -7 -4 -4 -10 12 -19 -12 -10 -33 13 -15 16 -22 35 -21 63 1
21 -2 51 -6 66 -4 15 -4 36 0 45 5 10 7 28 6 41 -1 12 2 22 8 22 6 0 11 6 11
14 0 8 14 26 31 40 35 30 108 36 128 12z m-300 -48 c21 -51 24 -64 22 -81 -1
-10 3 -24 9 -32 13 -16 31 -102 35 -166 1 -26 5 -51 8 -55 12 -20 17 -152 7
-178 -6 -16 -12 -27 -15 -24 -8 8 -54 204 -65 278 -16 112 -27 280 -18 280 5
0 12 -10 17 -22z m637 -171 c24 -24 33 -115 34 -345 l0 -244 -31 -30 c-29 -29
-33 -30 -92 -24 -33 3 -64 12 -69 19 -4 6 -8 8 -8 4 0 -4 -16 4 -35 19 -19 14
-35 24 -35 21 0 -3 -12 5 -26 18 -15 14 -30 23 -34 20 -4 -2 -15 4 -25 15 -10
11 -22 20 -27 20 -23 0 -88 95 -88 129 0 9 7 26 15 37 8 10 15 35 15 54 0 20
5 41 11 47 6 6 12 17 13 24 4 21 15 47 47 117 44 93 71 107 214 107 62 0 117
-4 121 -8z m397 -41 c28 -9 69 -18 90 -21 29 -5 43 -14 57 -38 20 -32 28 -97
12 -97 -4 0 -13 -21 -20 -46 -9 -35 -27 -61 -67 -100 l-55 -54 -83 0 c-90 0
-116 12 -148 71 -15 29 -13 237 3 257 33 40 127 52 211 28z m5535 -182 c12 -8
27 -12 32 -9 11 7 128 -33 136 -46 3 -5 16 -9 28 -9 13 0 35 -9 49 -20 14 -11
32 -20 40 -20 7 0 22 -9 32 -20 10 -11 26 -20 37 -20 10 0 18 -5 18 -12 0 -6
3 -8 6 -5 4 3 18 -3 32 -13 13 -11 30 -20 37 -20 7 0 25 -13 38 -30 14 -16 32
-30 41 -30 8 0 33 -24 55 -52 22 -29 45 -58 51 -65 14 -17 14 -18 -32 -86
-204 -305 -497 -499 -869 -577 -50 -10 -97 -16 -104 -14 -7 3 -26 31 -41 62
-16 31 -37 71 -49 87 -30 44 -28 200 3 267 12 26 22 54 22 63 0 9 8 32 19 53
10 20 22 52 26 70 3 17 11 32 16 32 5 0 9 7 9 15 0 9 11 37 25 63 14 26 25 54
25 63 0 9 6 22 14 28 8 7 17 28 21 49 4 20 15 45 26 55 10 10 19 24 19 31 0 8
6 19 14 25 8 7 17 24 21 39 3 15 18 35 33 44 36 22 140 23 170 2z m-5483 -325
c5 -5 21 -9 35 -9 26 0 45 -18 98 -90 10 -14 31 -59 47 -100 17 -41 38 -91 47
-110 21 -41 23 -89 5 -114 -10 -14 -21 -16 -50 -11 -20 4 -37 11 -37 16 0 5
-7 9 -15 9 -8 0 -29 8 -47 18 -18 10 -54 24 -81 32 -26 7 -50 17 -53 21 -3 5
-15 9 -27 9 -12 0 -37 9 -55 20 -18 11 -37 20 -43 20 -17 0 -122 51 -156 77
-20 14 -33 33 -33 46 0 26 87 140 101 131 5 -3 9 2 9 10 0 9 7 16 15 16 8 0
15 5 15 10 0 7 17 9 45 6 26 -3 47 -1 51 5 7 13 113 3 129 -12z m-882 -28 c20
-21 50 -44 65 -52 15 -7 38 -21 51 -31 13 -10 32 -18 42 -18 11 0 19 -4 19 -9
0 -5 19 -18 43 -30 78 -38 91 -53 90 -109 -1 -46 -35 -132 -53 -132 -9 0 -141
139 -185 194 -41 51 -135 203 -135 218 0 19 27 5 63 -31z m543 -297 c24 -14
44 -23 44 -19 0 4 6 3 13 -2 6 -6 30 -16 52 -23 88 -26 272 -119 290 -146 13
-19 11 -24 -13 -47 -17 -16 -44 -28 -72 -33 -25 -3 -54 -12 -66 -19 -11 -8
-47 -18 -78 -24 -56 -10 -58 -10 -149 34 -132 63 -210 114 -198 129 6 6 15 32
21 56 6 25 12 50 13 55 2 6 11 22 21 38 24 35 63 36 122 1z m844 -220 c19 -2
71 -5 114 -8 98 -6 134 -20 143 -55 3 -14 10 -28 14 -31 5 -3 11 -31 15 -63
l7 -57 -159 0 c-239 1 -420 15 -439 33 -8 9 -18 36 -21 61 -8 55 9 86 64 116
37 21 78 21 262 4z m4113 -3 c189 -21 211 -31 222 -100 4 -20 10 -45 15 -57
19 -47 10 -49 -299 -52 l-289 -4 -7 34 c-4 18 -14 42 -21 53 -8 11 -14 27 -14
36 0 18 54 80 85 97 29 16 117 14 308 -7z m-1143 -74 c40 -15 103 -47 110 -56
3 -4 20 -17 38 -30 29 -20 44 -51 25 -51 -5 0 -164 -3 -354 -7 -279 -5 -347
-4 -354 7 -5 8 -2 18 8 25 10 7 17 17 17 23 0 7 12 14 28 18 15 3 36 9 47 14
19 7 56 18 143 39 110 28 242 36 292 18z m598 -97 c46 -31 27 -39 -103 -42
-69 -2 -125 0 -125 4 0 11 36 28 62 28 13 0 34 6 48 13 33 17 89 15 118 -3z"/>
<path d="M3520 5050 l0 -2480 1038 0 c836 0 1063 3 1172 15 183 19 283 40 422
85 544 179 808 606 808 1305 0 465 -119 793 -359 992 -37 30 -112 77 -168 106
-105 54 -123 72 -123 127 0 52 18 77 92 129 92 65 216 186 273 265 130 184
189 368 201 637 17 342 -70 671 -229 874 -164 209 -415 332 -812 398 -126 20
-162 21 -1222 24 l-1093 4 0 -2481z m1750 1474 c199 -59 274 -220 274 -589 0
-327 -53 -474 -198 -545 -79 -39 -152 -50 -349 -50 -154 0 -158 1 -182 25
l-25 24 0 549 c0 541 0 550 21 576 l20 26 193 0 c146 0 205 -4 246 -16z m9
-1849 c258 -61 352 -271 338 -758 -7 -269 -38 -385 -123 -469 -79 -80 -172
-105 -414 -114 -193 -8 -241 -3 -271 27 -18 18 -19 38 -19 648 0 620 0 629 21
655 l20 26 192 0 c136 0 211 -5 256 -15z"/>
</g>
</svg>
